<?xml version="1.0" encoding="UTF-8"?>
<svg xmlns="http://www.w3.org/2000/svg" xmlns:xlink="http://www.w3.org/1999/xlink" width="64px" height="64px" viewBox="0 0 64 64" version="1.1">
<g id="surface1">
<path style=" stroke:none;fill-rule:nonzero;fill:rgb(0.784314%,0.784314%,0.392157%);fill-opacity:1;" d="M 34.1875 3.820312 C 34.980469 4.402344 35.558594 5.054688 35.875 6 C 35.953125 5.996094 36.03125 5.996094 36.113281 5.992188 C 37.761719 5.957031 39.042969 6.496094 40.25 7.625 C 40.332031 7.589844 40.410156 7.554688 40.492188 7.515625 C 41.78125 6.988281 43.003906 6.917969 44.304688 7.460938 C 45.394531 8.019531 46.191406 8.808594 46.628906 9.96875 C 47.015625 11.257812 46.859375 12.222656 46.5 13.5 C 46.738281 13.558594 46.738281 13.558594 46.984375 13.617188 C 48.078125 13.988281 48.804688 14.777344 49.320312 15.789062 C 49.957031 17.171875 49.863281 18.472656 49.382812 19.902344 C 49.269531 20.195312 49.148438 20.472656 49 20.75 C 49.0625 20.800781 49.128906 20.851562 49.191406 20.902344 C 50.121094 21.667969 50.679688 22.390625 50.96875 23.570312 C 51.21875 24.472656 51.601562 25.1875 52.101562 25.96875 C 52.269531 26.238281 52.4375 26.507812 52.601562 26.777344 C 52.6875 26.914062 52.773438 27.054688 52.863281 27.195312 C 53.390625 28.054688 53.882812 28.9375 54.382812 29.8125 C 54.457031 29.941406 54.53125 30.070312 54.605469 30.199219 C 54.710938 30.378906 54.710938 30.378906 54.8125 30.5625 C 55.007812 30.894531 55.007812 30.894531 55.289062 31.273438 C 55.773438 32.078125 55.785156 33.019531 55.78125 33.9375 C 55.78125 34.109375 55.78125 34.109375 55.785156 34.28125 C 55.785156 34.652344 55.785156 35.019531 55.78125 35.390625 C 55.785156 35.648438 55.785156 35.910156 55.785156 36.167969 C 55.785156 36.710938 55.785156 37.25 55.78125 37.792969 C 55.78125 38.484375 55.78125 39.175781 55.785156 39.871094 C 55.785156 40.40625 55.785156 40.9375 55.785156 41.472656 C 55.785156 41.730469 55.785156 41.984375 55.785156 42.238281 C 55.785156 42.597656 55.785156 42.953125 55.78125 43.3125 C 55.78125 43.414062 55.785156 43.519531 55.785156 43.625 C 55.777344 44.671875 55.644531 45.582031 54.972656 46.410156 C 54.207031 47.148438 53.292969 47.269531 52.273438 47.261719 C 52.179688 47.261719 52.085938 47.261719 51.988281 47.261719 C 51.691406 47.261719 51.390625 47.257812 51.09375 47.257812 C 50.890625 47.257812 50.6875 47.257812 50.484375 47.257812 C 49.992188 47.253906 49.496094 47.253906 49 47.25 C 48.945312 47.839844 48.894531 48.433594 48.839844 49.023438 C 48.820312 49.226562 48.804688 49.425781 48.785156 49.628906 C 48.757812 49.917969 48.734375 50.207031 48.707031 50.496094 C 48.699219 50.585938 48.691406 50.675781 48.683594 50.765625 C 48.605469 51.652344 48.566406 52.214844 49 53 C 49.085938 53.222656 49.085938 53.222656 49.171875 53.453125 C 49.394531 53.917969 49.601562 54.0625 50 54.375 C 50.820312 55.464844 50.996094 56.523438 50.875 57.875 C 50.761719 58.289062 50.597656 58.632812 50.375 59 C 50.332031 59.078125 50.289062 59.15625 50.242188 59.234375 C 49.761719 60.003906 49.035156 60.453125 48.210938 60.796875 C 47.296875 60.953125 46.410156 60.914062 45.5 60.75 C 45.375 60.792969 45.253906 60.832031 45.125 60.875 C 44.765625 60.886719 44.410156 60.894531 44.050781 60.894531 C 43.9375 60.894531 43.828125 60.894531 43.710938 60.894531 C 43.335938 60.894531 42.964844 60.898438 42.589844 60.898438 C 42.320312 60.898438 42.054688 60.898438 41.785156 60.898438 C 41.058594 60.902344 40.328125 60.902344 39.601562 60.902344 C 39.144531 60.90625 38.691406 60.90625 38.234375 60.90625 C 36.808594 60.910156 35.386719 60.910156 33.960938 60.910156 C 32.316406 60.914062 30.671875 60.917969 29.027344 60.921875 C 27.757812 60.925781 26.488281 60.925781 25.21875 60.925781 C 24.457031 60.925781 23.699219 60.929688 22.941406 60.933594 C 22.226562 60.933594 21.511719 60.933594 20.796875 60.933594 C 20.535156 60.933594 20.273438 60.933594 20.011719 60.9375 C 18.367188 60.945312 16.976562 60.953125 15.71875 59.75 C 14.855469 58.753906 14.738281 57.582031 14.625 56.320312 C 14.605469 56.128906 14.585938 55.9375 14.566406 55.746094 C 14.523438 55.324219 14.484375 54.898438 14.445312 54.472656 C 14.367188 53.660156 14.285156 52.847656 14.203125 52.035156 C 14.050781 50.484375 13.898438 48.929688 13.75 47.375 C 13.628906 47.375 13.503906 47.371094 13.378906 47.371094 C 12.917969 47.363281 12.457031 47.351562 11.996094 47.34375 C 11.796875 47.339844 11.597656 47.335938 11.402344 47.332031 C 8.710938 47.292969 8.710938 47.292969 7.679688 46.324219 C 6.964844 45.523438 6.980469 44.582031 6.980469 43.574219 C 6.980469 43.453125 6.980469 43.335938 6.976562 43.214844 C 6.976562 42.828125 6.976562 42.4375 6.976562 42.046875 C 6.972656 41.777344 6.972656 41.507812 6.972656 41.234375 C 6.972656 40.667969 6.96875 40.097656 6.96875 39.53125 C 6.96875 38.804688 6.964844 38.078125 6.960938 37.351562 C 6.960938 36.792969 6.960938 36.230469 6.960938 35.671875 C 6.960938 35.402344 6.957031 35.136719 6.957031 34.867188 C 6.953125 34.492188 6.953125 34.117188 6.957031 33.742188 C 6.953125 33.632812 6.953125 33.523438 6.953125 33.410156 C 6.960938 32.34375 7.261719 31.492188 7.828125 30.59375 C 7.925781 30.433594 8.027344 30.273438 8.125 30.113281 C 8.183594 30.019531 8.242188 29.925781 8.300781 29.832031 C 8.777344 29.039062 9.238281 28.238281 9.707031 27.441406 C 9.835938 27.214844 9.96875 26.988281 10.101562 26.761719 C 10.167969 26.648438 10.167969 26.648438 10.230469 26.539062 C 10.449219 26.164062 10.675781 25.792969 10.90625 25.429688 C 10.953125 25.355469 10.996094 25.285156 11.042969 25.210938 C 11.167969 25.011719 11.296875 24.816406 11.421875 24.621094 C 11.691406 24.125 11.800781 23.640625 11.910156 23.089844 C 12.027344 22.648438 12.230469 22.328125 12.5 21.964844 C 12.667969 21.71875 12.667969 21.71875 12.625 21.25 C 12.457031 21.046875 12.457031 21.046875 12.226562 20.867188 C 11.515625 20.195312 11.066406 19.230469 11 18.25 C 10.988281 18.101562 10.972656 17.957031 10.960938 17.804688 C 10.984375 16.554688 11.480469 15.367188 12.375 14.5 C 12.53125 14.40625 12.691406 14.3125 12.851562 14.226562 C 13.199219 14.007812 13.246094 13.898438 13.34375 13.488281 C 13.378906 13.179688 13.414062 12.871094 13.445312 12.5625 C 13.597656 11.339844 14.304688 10.542969 15.171875 9.71875 C 15.65625 9.394531 16.277344 9 16.875 9 C 16.867188 8.875 16.859375 8.753906 16.851562 8.625 C 16.859375 7.539062 17.484375 6.558594 18.203125 5.78125 C 19.136719 4.917969 20.261719 4.574219 21.515625 4.589844 C 22.386719 4.675781 23.289062 4.910156 23.96875 5.484375 C 24.363281 5.808594 24.363281 5.808594 24.859375 5.664062 C 24.953125 5.632812 25.046875 5.605469 25.140625 5.574219 C 25.714844 5.453125 26.296875 5.507812 26.882812 5.554688 C 27.1875 5.574219 27.1875 5.574219 27.625 5.5 C 27.925781 5.160156 27.925781 5.160156 28.125 4.75 C 29.617188 2.902344 32.195312 2.566406 34.1875 3.820312 Z M 11.75 28 C 11.554688 28.308594 11.367188 28.617188 11.179688 28.929688 C 11.125 29.019531 11.074219 29.105469 11.019531 29.199219 C 10.746094 29.574219 10.746094 29.574219 10.625 30 C 11.121094 30 11.613281 30 12.125 30 C 12.042969 29.339844 11.960938 28.679688 11.875 28 C 11.832031 28 11.792969 28 11.75 28 Z M 50.875 28 C 50.691406 28.371094 50.707031 28.730469 50.679688 29.140625 C 50.667969 29.300781 50.660156 29.460938 50.648438 29.625 C 50.640625 29.75 50.632812 29.871094 50.625 30 C 51.078125 30 51.53125 30 52 30 C 51.808594 29.519531 51.609375 29.097656 51.359375 28.648438 C 51.292969 28.527344 51.226562 28.40625 51.15625 28.277344 C 51.105469 28.1875 51.054688 28.09375 51 28 C 50.957031 28 50.917969 28 50.875 28 Z M 50.875 28 "/>
<path style=" stroke:none;fill-rule:nonzero;fill:rgb(85.882354%,85.882354%,85.882354%);fill-opacity:1;" d="M 10.308594 31.933594 C 10.390625 31.933594 10.472656 31.933594 10.554688 31.933594 C 10.824219 31.929688 11.097656 31.929688 11.367188 31.929688 C 11.5625 31.929688 11.757812 31.929688 11.949219 31.925781 C 12.480469 31.925781 13.007812 31.925781 13.535156 31.925781 C 13.976562 31.925781 14.417969 31.921875 14.859375 31.921875 C 15.898438 31.917969 16.941406 31.917969 17.980469 31.921875 C 19.054688 31.921875 20.128906 31.917969 21.199219 31.914062 C 22.121094 31.910156 23.042969 31.910156 23.964844 31.910156 C 24.515625 31.910156 25.066406 31.910156 25.617188 31.90625 C 26.136719 31.902344 26.652344 31.902344 27.171875 31.90625 C 27.359375 31.90625 27.550781 31.90625 27.738281 31.902344 C 29.351562 31.886719 29.351562 31.886719 29.902344 32.363281 C 29.960938 32.429688 30.015625 32.496094 30.078125 32.566406 C 30.347656 32.855469 30.628906 32.984375 31.019531 33.039062 C 31.652344 33.039062 32.078125 32.976562 32.625 32.625 C 32.714844 32.519531 32.808594 32.414062 32.902344 32.304688 C 33.550781 31.765625 34.480469 31.914062 35.277344 31.921875 C 35.472656 31.921875 35.667969 31.917969 35.863281 31.917969 C 36.390625 31.917969 36.917969 31.917969 37.449219 31.921875 C 38 31.921875 38.554688 31.921875 39.109375 31.921875 C 40.039062 31.917969 40.964844 31.921875 41.894531 31.925781 C 42.96875 31.929688 44.042969 31.929688 45.117188 31.925781 C 46.152344 31.925781 47.1875 31.925781 48.21875 31.929688 C 48.660156 31.929688 49.097656 31.929688 49.539062 31.929688 C 50.058594 31.925781 50.574219 31.929688 51.09375 31.933594 C 51.28125 31.933594 51.472656 31.933594 51.664062 31.933594 C 51.921875 31.929688 52.179688 31.933594 52.441406 31.9375 C 52.585938 31.9375 52.730469 31.9375 52.878906 31.9375 C 53.332031 32.015625 53.480469 32.132812 53.75 32.5 C 53.8125 32.75 53.8125 32.75 53.8125 33.023438 C 53.816406 33.175781 53.816406 33.175781 53.816406 33.335938 C 53.816406 33.503906 53.816406 33.503906 53.816406 33.671875 C 53.816406 33.851562 53.816406 33.851562 53.816406 34.03125 C 53.820312 34.425781 53.816406 34.816406 53.816406 35.210938 C 53.816406 35.484375 53.816406 35.757812 53.816406 36.027344 C 53.820312 36.601562 53.816406 37.171875 53.816406 37.742188 C 53.8125 38.476562 53.8125 39.210938 53.816406 39.941406 C 53.820312 40.507812 53.816406 41.070312 53.816406 41.632812 C 53.816406 41.902344 53.816406 42.171875 53.816406 42.445312 C 53.820312 42.820312 53.816406 43.199219 53.816406 43.578125 C 53.816406 43.6875 53.816406 43.800781 53.816406 43.914062 C 53.816406 44.019531 53.816406 44.121094 53.8125 44.226562 C 53.8125 44.363281 53.8125 44.363281 53.8125 44.5 C 53.71875 44.875 53.558594 45.019531 53.25 45.25 C 52.882812 45.3125 52.882812 45.3125 52.449219 45.308594 C 52.285156 45.3125 52.121094 45.3125 51.949219 45.3125 C 51.769531 45.308594 51.585938 45.308594 51.402344 45.308594 C 51.210938 45.304688 51.019531 45.308594 50.828125 45.308594 C 50.304688 45.308594 49.785156 45.304688 49.261719 45.300781 C 48.714844 45.296875 48.171875 45.296875 47.625 45.296875 C 46.59375 45.296875 45.5625 45.292969 44.527344 45.285156 C 43.355469 45.28125 42.179688 45.277344 41.003906 45.273438 C 38.585938 45.269531 36.167969 45.261719 33.75 45.25 C 33.703125 45.105469 33.652344 44.957031 33.601562 44.808594 C 33.539062 44.613281 33.472656 44.421875 33.40625 44.226562 C 33.375 44.128906 33.34375 44.035156 33.308594 43.933594 C 33.089844 43.289062 32.851562 42.734375 32.261719 42.339844 C 31.722656 42.15625 31.183594 42.175781 30.625 42.25 C 29.78125 42.6875 29.546875 43.507812 29.25 44.375 C 29.164062 44.667969 29.082031 44.957031 29 45.25 C 26.464844 45.261719 23.933594 45.269531 21.398438 45.277344 C 20.222656 45.277344 19.046875 45.28125 17.867188 45.289062 C 16.84375 45.292969 15.820312 45.296875 14.792969 45.296875 C 14.25 45.296875 13.707031 45.300781 13.164062 45.304688 C 12.652344 45.304688 12.140625 45.308594 11.632812 45.304688 C 11.445312 45.308594 11.257812 45.308594 11.070312 45.308594 C 10.8125 45.3125 10.554688 45.3125 10.300781 45.308594 C 10.085938 45.3125 10.085938 45.3125 9.867188 45.3125 C 9.414062 45.234375 9.269531 45.117188 9 44.75 C 8.9375 44.5 8.9375 44.5 8.9375 44.226562 C 8.933594 44.125 8.933594 44.023438 8.933594 43.914062 C 8.933594 43.804688 8.933594 43.691406 8.933594 43.578125 C 8.933594 43.457031 8.933594 43.339844 8.933594 43.21875 C 8.929688 42.824219 8.933594 42.433594 8.933594 42.039062 C 8.933594 41.765625 8.933594 41.492188 8.933594 41.222656 C 8.929688 40.648438 8.933594 40.078125 8.933594 39.507812 C 8.9375 38.773438 8.9375 38.039062 8.933594 37.308594 C 8.929688 36.742188 8.933594 36.179688 8.933594 35.617188 C 8.933594 35.347656 8.933594 35.078125 8.933594 34.804688 C 8.929688 34.429688 8.933594 34.050781 8.933594 33.671875 C 8.933594 33.5625 8.933594 33.449219 8.933594 33.335938 C 8.933594 33.230469 8.933594 33.128906 8.9375 33.023438 C 8.9375 32.933594 8.9375 32.84375 8.9375 32.75 C 9.117188 32.023438 9.640625 31.9375 10.308594 31.933594 Z M 10.308594 31.933594 "/>
<path style=" stroke:none;fill-rule:nonzero;fill:rgb(98.431373%,85.09804%,52.549022%);fill-opacity:1;" d="M 32.796875 5.25 C 33.65625 5.90625 34.078125 6.519531 34.300781 7.585938 C 34.355469 7.898438 34.355469 7.898438 34.625 8.125 C 35.085938 8.148438 35.433594 8.148438 35.875 8 C 36.707031 7.914062 37.441406 7.894531 38.140625 8.394531 C 38.4375 8.6875 38.652344 9.007812 38.882812 9.351562 C 39.238281 9.886719 39.238281 9.886719 39.8125 10.132812 C 40.3125 9.980469 40.628906 9.761719 41.023438 9.425781 C 41.613281 8.964844 42.417969 9.0625 43.125 9.125 C 43.882812 9.3125 44.34375 9.761719 44.742188 10.421875 C 45.042969 11.164062 44.984375 11.933594 44.726562 12.679688 C 44.472656 13.039062 44.191406 13.324219 43.875 13.625 C 43.570312 13.914062 43.570312 13.914062 43.375 14.25 C 43.394531 14.714844 43.417969 14.917969 43.75 15.25 C 44.089844 15.253906 44.425781 15.25 44.765625 15.234375 C 45.726562 15.214844 46.378906 15.273438 47.09375 15.960938 C 47.753906 16.675781 47.796875 17.277344 47.785156 18.234375 C 47.714844 19.015625 47.4375 19.546875 46.914062 20.117188 C 46.476562 20.390625 46.167969 20.457031 45.671875 20.542969 C 45.125 20.695312 44.699219 21.039062 44.25 21.375 C 44.109375 21.480469 44.109375 21.480469 43.96875 21.585938 C 43.894531 21.640625 43.824219 21.695312 43.75 21.75 C 43.632812 21.636719 43.511719 21.523438 43.390625 21.40625 C 42.398438 20.574219 41.367188 20.398438 40.097656 20.453125 C 39.035156 20.558594 38.308594 21.089844 37.5 21.75 C 37.449219 21.703125 37.398438 21.652344 37.347656 21.605469 C 36.285156 20.628906 35.308594 20.382812 33.890625 20.445312 C 32.890625 20.523438 32.140625 21.003906 31.5 21.75 C 31.035156 21.535156 30.671875 21.25 30.273438 20.929688 C 29.367188 20.335938 28.171875 20.371094 27.125 20.5 C 26.335938 20.734375 25.796875 21.152344 25.25 21.75 C 25.167969 21.75 25.085938 21.75 25 21.75 C 24.867188 21.609375 24.867188 21.609375 24.734375 21.46875 C 23.800781 20.578125 22.746094 20.441406 21.503906 20.464844 C 20.433594 20.515625 19.679688 21.09375 18.875 21.75 C 18.703125 21.582031 18.703125 21.582031 18.53125 21.414062 C 17.664062 20.683594 16.71875 20.355469 15.59375 20.3125 C 14.625 20.273438 14.109375 20.003906 13.453125 19.3125 C 13.011719 18.632812 12.910156 18.050781 13 17.25 C 13.375 16.125 13.921875 15.683594 14.953125 15.167969 C 15.265625 15.027344 15.265625 15.027344 15.375 14.75 C 15.375 14.339844 15.367188 13.933594 15.347656 13.527344 C 15.332031 12.785156 15.496094 12.210938 15.953125 11.605469 C 16.570312 11.039062 17.074219 10.886719 17.90625 10.824219 C 18.34375 10.730469 18.496094 10.617188 18.75 10.25 C 18.792969 9.84375 18.792969 9.84375 18.75 9.40625 C 18.730469 8.640625 18.769531 8.109375 19.25 7.5 C 19.703125 7.027344 20.191406 6.660156 20.851562 6.585938 C 22.175781 6.582031 22.175781 6.582031 22.75 7 C 22.914062 7.171875 23.078125 7.347656 23.242188 7.523438 C 23.574219 7.867188 23.699219 7.988281 24.171875 8.101562 C 24.695312 7.984375 25.09375 7.765625 25.5625 7.515625 C 26.046875 7.296875 26.347656 7.304688 26.875 7.375 C 27.167969 7.5 27.460938 7.625 27.75 7.75 C 28.324219 7.828125 28.324219 7.828125 28.824219 7.597656 C 29.03125 7.335938 29.109375 7.101562 29.210938 6.78125 C 29.804688 5.203125 31.257812 4.792969 32.796875 5.25 Z M 32.796875 5.25 "/>
<path style=" stroke:none;fill-rule:nonzero;fill:rgb(6.666667%,54.509807%,62.352943%);fill-opacity:1;" d="M 13.800781 33.183594 C 14.011719 33.183594 14.011719 33.183594 14.230469 33.179688 C 14.695312 33.175781 15.160156 33.179688 15.625 33.179688 C 15.949219 33.179688 16.273438 33.179688 16.597656 33.175781 C 17.277344 33.175781 17.957031 33.175781 18.632812 33.179688 C 19.417969 33.179688 20.199219 33.179688 20.984375 33.175781 C 21.738281 33.171875 22.496094 33.171875 23.25 33.171875 C 23.570312 33.171875 23.890625 33.171875 24.210938 33.167969 C 24.660156 33.167969 25.109375 33.167969 25.558594 33.171875 C 25.691406 33.167969 25.820312 33.167969 25.957031 33.167969 C 26.789062 33.175781 27.359375 33.324219 28 33.875 C 28.734375 34.675781 28.714844 35.503906 28.703125 36.550781 C 28.703125 36.710938 28.703125 36.871094 28.703125 37.035156 C 28.703125 37.371094 28.703125 37.710938 28.699219 38.046875 C 28.695312 38.476562 28.695312 38.90625 28.699219 39.335938 C 28.699219 39.75 28.699219 40.160156 28.695312 40.574219 C 28.695312 40.726562 28.695312 40.878906 28.699219 41.039062 C 28.6875 41.917969 28.601562 42.503906 28.125 43.25 C 27.59375 43.753906 27.128906 44.03125 26.390625 44.035156 C 26.269531 44.035156 26.148438 44.039062 26.023438 44.039062 C 25.890625 44.039062 25.753906 44.039062 25.617188 44.039062 C 25.40625 44.042969 25.40625 44.042969 25.191406 44.042969 C 24.726562 44.046875 24.257812 44.050781 23.792969 44.050781 C 23.46875 44.050781 23.140625 44.054688 22.816406 44.054688 C 22.222656 44.058594 21.628906 44.058594 21.035156 44.058594 C 20.164062 44.0625 19.292969 44.066406 18.421875 44.074219 C 17.664062 44.078125 16.90625 44.082031 16.152344 44.082031 C 15.828125 44.082031 15.507812 44.082031 15.1875 44.085938 C 14.738281 44.089844 14.289062 44.089844 13.835938 44.089844 C 13.640625 44.09375 13.640625 44.09375 13.4375 44.097656 C 12.53125 44.085938 11.917969 43.878906 11.25 43.25 C 10.898438 42.734375 10.828125 42.324219 10.824219 41.707031 C 10.820312 41.550781 10.820312 41.394531 10.816406 41.238281 C 10.816406 41.070312 10.816406 40.902344 10.816406 40.734375 C 10.816406 40.5625 10.816406 40.386719 10.8125 40.214844 C 10.8125 39.851562 10.8125 39.488281 10.8125 39.125 C 10.8125 38.664062 10.808594 38.203125 10.804688 37.738281 C 10.800781 37.378906 10.800781 37.023438 10.800781 36.664062 C 10.800781 36.496094 10.800781 36.324219 10.796875 36.152344 C 10.777344 34.558594 10.777344 34.558594 11.28125 33.925781 C 12.117188 33.25 12.746094 33.175781 13.800781 33.183594 Z M 13.800781 33.183594 "/>
<path style=" stroke:none;fill-rule:nonzero;fill:rgb(92.54902%,18.82353%,13.725491%);fill-opacity:1;" d="M 36.402344 33.230469 C 36.601562 33.226562 36.601562 33.226562 36.804688 33.226562 C 36.949219 33.226562 37.09375 33.226562 37.242188 33.222656 C 37.390625 33.222656 37.535156 33.222656 37.6875 33.222656 C 38.003906 33.222656 38.316406 33.21875 38.628906 33.21875 C 39.105469 33.21875 39.585938 33.214844 40.0625 33.210938 C 40.367188 33.210938 40.671875 33.210938 40.976562 33.207031 C 41.191406 33.207031 41.191406 33.207031 41.410156 33.203125 C 41.542969 33.203125 41.675781 33.203125 41.816406 33.207031 C 41.933594 33.203125 42.050781 33.203125 42.171875 33.203125 C 42.574219 33.261719 42.804688 33.375 43.125 33.625 C 43.1875 33.871094 43.1875 33.871094 43.25 34.125 C 44.117188 34.125 44.984375 34.125 45.875 34.125 C 45.957031 33.917969 46.039062 33.710938 46.125 33.5 C 46.726562 33.101562 47.382812 33.207031 48.089844 33.210938 C 48.347656 33.210938 48.609375 33.207031 48.871094 33.203125 C 49.035156 33.203125 49.203125 33.203125 49.371094 33.203125 C 49.519531 33.203125 49.671875 33.203125 49.828125 33.203125 C 50.617188 33.289062 51.109375 33.664062 51.625 34.25 C 51.886719 34.667969 51.90625 35.003906 51.910156 35.492188 C 51.914062 35.640625 51.914062 35.789062 51.917969 35.945312 C 51.917969 36.105469 51.917969 36.265625 51.917969 36.429688 C 51.917969 36.597656 51.917969 36.765625 51.917969 36.933594 C 51.921875 37.285156 51.921875 37.640625 51.921875 37.992188 C 51.921875 38.4375 51.925781 38.886719 51.929688 39.335938 C 51.933594 39.683594 51.933594 40.03125 51.933594 40.375 C 51.933594 40.621094 51.933594 40.867188 51.9375 41.113281 C 51.933594 42.007812 51.875 42.621094 51.375 43.375 C 50.8125 43.820312 50.371094 44.015625 49.660156 44.019531 C 49.539062 44.019531 49.417969 44.019531 49.292969 44.019531 C 49.160156 44.019531 49.027344 44.023438 48.890625 44.023438 C 48.679688 44.023438 48.679688 44.023438 48.464844 44.023438 C 48 44.027344 47.535156 44.027344 47.070312 44.03125 C 46.835938 44.03125 46.835938 44.03125 46.59375 44.03125 C 45.839844 44.035156 45.085938 44.035156 44.335938 44.035156 C 43.464844 44.039062 42.597656 44.042969 41.730469 44.046875 C 40.980469 44.050781 40.226562 44.050781 39.476562 44.050781 C 39.15625 44.054688 38.835938 44.054688 38.515625 44.058594 C 38.070312 44.058594 37.621094 44.058594 37.175781 44.058594 C 37.042969 44.058594 36.910156 44.0625 36.773438 44.0625 C 35.988281 44.058594 35.515625 43.964844 34.875 43.5 C 34.324219 42.90625 34.09375 42.453125 34.089844 41.644531 C 34.085938 41.496094 34.085938 41.347656 34.082031 41.199219 C 34.082031 41.039062 34.082031 40.878906 34.082031 40.714844 C 34.082031 40.550781 34.082031 40.390625 34.082031 40.21875 C 34.078125 39.875 34.078125 39.527344 34.078125 39.179688 C 34.078125 38.738281 34.074219 38.296875 34.070312 37.855469 C 34.066406 37.429688 34.066406 37.007812 34.066406 36.582031 C 34.066406 36.425781 34.0625 36.265625 34.0625 36.105469 C 34.066406 35.125 34.148438 34.523438 34.824219 33.78125 C 35.367188 33.363281 35.726562 33.234375 36.402344 33.230469 Z M 36.402344 33.230469 "/>
<path style=" stroke:none;fill-rule:nonzero;fill:rgb(79.215688%,78.823531%,76.862746%);fill-opacity:1;" d="M 10.308594 31.933594 C 10.390625 31.933594 10.472656 31.933594 10.554688 31.933594 C 10.824219 31.929688 11.097656 31.929688 11.367188 31.929688 C 11.5625 31.929688 11.757812 31.929688 11.949219 31.925781 C 12.480469 31.925781 13.007812 31.925781 13.535156 31.925781 C 13.976562 31.925781 14.417969 31.921875 14.859375 31.921875 C 15.898438 31.917969 16.941406 31.917969 17.980469 31.921875 C 19.054688 31.921875 20.128906 31.917969 21.199219 31.914062 C 22.121094 31.910156 23.042969 31.910156 23.964844 31.910156 C 24.515625 31.910156 25.066406 31.910156 25.617188 31.90625 C 26.136719 31.902344 26.652344 31.902344 27.171875 31.90625 C 27.359375 31.90625 27.550781 31.90625 27.738281 31.902344 C 29.351562 31.886719 29.351562 31.886719 29.863281 32.355469 C 29.988281 32.488281 30.117188 32.617188 30.25 32.75 C 30.621094 32.875 30.992188 32.996094 31.375 33.125 C 31.417969 36.09375 31.457031 39.066406 31.5 42.125 C 31.066406 42.1875 31.066406 42.1875 30.625 42.25 C 29.558594 42.867188 29.316406 44.128906 29 45.25 C 26.464844 45.261719 23.933594 45.269531 21.398438 45.277344 C 20.222656 45.277344 19.046875 45.28125 17.867188 45.289062 C 16.84375 45.292969 15.820312 45.296875 14.792969 45.296875 C 14.25 45.296875 13.707031 45.300781 13.164062 45.304688 C 12.652344 45.304688 12.140625 45.308594 11.632812 45.304688 C 11.445312 45.308594 11.257812 45.308594 11.070312 45.308594 C 10.8125 45.3125 10.554688 45.3125 10.300781 45.308594 C 10.085938 45.3125 10.085938 45.3125 9.867188 45.3125 C 9.414062 45.234375 9.269531 45.117188 9 44.75 C 8.9375 44.5 8.9375 44.5 8.9375 44.226562 C 8.933594 44.125 8.933594 44.023438 8.933594 43.914062 C 8.933594 43.804688 8.933594 43.691406 8.933594 43.578125 C 8.933594 43.457031 8.933594 43.339844 8.933594 43.21875 C 8.929688 42.824219 8.933594 42.433594 8.933594 42.039062 C 8.933594 41.765625 8.933594 41.492188 8.933594 41.222656 C 8.929688 40.648438 8.933594 40.078125 8.933594 39.507812 C 8.9375 38.773438 8.9375 38.039062 8.933594 37.308594 C 8.929688 36.742188 8.933594 36.179688 8.933594 35.617188 C 8.933594 35.347656 8.933594 35.078125 8.933594 34.804688 C 8.929688 34.429688 8.933594 34.050781 8.933594 33.671875 C 8.933594 33.5625 8.933594 33.449219 8.933594 33.335938 C 8.933594 33.230469 8.933594 33.128906 8.9375 33.023438 C 8.9375 32.933594 8.9375 32.84375 8.9375 32.75 C 9.117188 32.023438 9.640625 31.9375 10.308594 31.933594 Z M 10.996094 34.3125 C 10.847656 34.691406 10.828125 34.996094 10.824219 35.40625 C 10.824219 35.558594 10.820312 35.714844 10.820312 35.875 C 10.820312 36.042969 10.820312 36.210938 10.820312 36.378906 C 10.820312 36.550781 10.820312 36.726562 10.820312 36.898438 C 10.816406 37.261719 10.816406 37.625 10.820312 37.988281 C 10.820312 38.453125 10.816406 38.917969 10.816406 39.378906 C 10.8125 39.738281 10.8125 40.097656 10.8125 40.457031 C 10.8125 40.625 10.8125 40.796875 10.8125 40.96875 C 10.78125 42.269531 10.78125 42.269531 11.375 43.375 C 12.140625 44.027344 12.835938 44.089844 13.816406 44.082031 C 14.027344 44.082031 14.027344 44.082031 14.242188 44.085938 C 14.707031 44.085938 15.171875 44.085938 15.636719 44.082031 C 15.960938 44.082031 16.285156 44.085938 16.609375 44.085938 C 17.289062 44.085938 17.964844 44.085938 18.644531 44.082031 C 19.425781 44.078125 20.207031 44.078125 20.992188 44.082031 C 21.746094 44.085938 22.5 44.085938 23.257812 44.082031 C 23.574219 44.082031 23.894531 44.082031 24.214844 44.085938 C 24.664062 44.085938 25.113281 44.085938 25.558594 44.082031 C 25.691406 44.082031 25.824219 44.082031 25.957031 44.085938 C 26.796875 44.074219 27.347656 43.914062 28 43.375 C 28.507812 42.835938 28.65625 42.246094 28.664062 41.519531 C 28.664062 41.375 28.667969 41.230469 28.667969 41.082031 C 28.671875 40.925781 28.671875 40.769531 28.671875 40.609375 C 28.671875 40.449219 28.671875 40.289062 28.675781 40.125 C 28.675781 39.785156 28.679688 39.445312 28.679688 39.105469 C 28.679688 38.675781 28.683594 38.242188 28.6875 37.808594 C 28.695312 37.394531 28.695312 36.980469 28.695312 36.5625 C 28.699219 36.332031 28.699219 36.332031 28.703125 36.097656 C 28.699219 35.1875 28.625 34.554688 28 33.875 C 27.238281 33.21875 26.535156 33.160156 25.5625 33.167969 C 25.421875 33.164062 25.28125 33.164062 25.132812 33.164062 C 24.671875 33.160156 24.207031 33.160156 23.742188 33.164062 C 23.417969 33.160156 23.09375 33.160156 22.769531 33.160156 C 22.09375 33.160156 21.414062 33.160156 20.738281 33.160156 C 19.957031 33.164062 19.175781 33.164062 18.394531 33.15625 C 17.640625 33.152344 16.886719 33.152344 16.132812 33.15625 C 15.8125 33.15625 15.492188 33.152344 15.171875 33.152344 C 14.722656 33.148438 14.277344 33.152344 13.828125 33.15625 C 13.699219 33.152344 13.566406 33.152344 13.433594 33.148438 C 12.382812 33.167969 11.664062 33.492188 10.996094 34.3125 Z M 10.996094 34.3125 "/>
<path style=" stroke:none;fill-rule:nonzero;fill:rgb(0.784314%,1.176471%,1.176471%);fill-opacity:1;" d="M 13.800781 33.183594 C 14.011719 33.183594 14.011719 33.183594 14.230469 33.179688 C 14.695312 33.175781 15.160156 33.179688 15.625 33.179688 C 15.949219 33.179688 16.273438 33.179688 16.597656 33.175781 C 17.277344 33.175781 17.957031 33.175781 18.632812 33.179688 C 19.417969 33.179688 20.199219 33.179688 20.984375 33.175781 C 21.738281 33.171875 22.496094 33.171875 23.25 33.171875 C 23.570312 33.171875 23.890625 33.171875 24.210938 33.167969 C 24.660156 33.167969 25.109375 33.167969 25.558594 33.171875 C 25.691406 33.167969 25.820312 33.167969 25.957031 33.167969 C 26.789062 33.175781 27.359375 33.324219 28 33.875 C 28.734375 34.675781 28.714844 35.503906 28.703125 36.550781 C 28.703125 36.710938 28.703125 36.871094 28.703125 37.035156 C 28.703125 37.371094 28.703125 37.710938 28.699219 38.046875 C 28.695312 38.476562 28.695312 38.90625 28.699219 39.335938 C 28.699219 39.75 28.699219 40.160156 28.695312 40.574219 C 28.695312 40.726562 28.695312 40.878906 28.699219 41.039062 C 28.6875 41.917969 28.601562 42.503906 28.125 43.25 C 27.59375 43.753906 27.128906 44.03125 26.390625 44.035156 C 26.269531 44.035156 26.148438 44.039062 26.023438 44.039062 C 25.890625 44.039062 25.753906 44.039062 25.617188 44.039062 C 25.40625 44.042969 25.40625 44.042969 25.191406 44.042969 C 24.726562 44.046875 24.257812 44.050781 23.792969 44.050781 C 23.46875 44.050781 23.140625 44.054688 22.816406 44.054688 C 22.222656 44.058594 21.628906 44.058594 21.035156 44.058594 C 20.164062 44.0625 19.292969 44.066406 18.421875 44.074219 C 17.664062 44.078125 16.90625 44.082031 16.152344 44.082031 C 15.828125 44.082031 15.507812 44.082031 15.1875 44.085938 C 14.738281 44.089844 14.289062 44.089844 13.835938 44.089844 C 13.640625 44.09375 13.640625 44.09375 13.4375 44.097656 C 12.53125 44.085938 11.917969 43.878906 11.25 43.25 C 10.898438 42.734375 10.828125 42.324219 10.824219 41.707031 C 10.820312 41.550781 10.820312 41.394531 10.816406 41.238281 C 10.816406 41.070312 10.816406 40.902344 10.816406 40.734375 C 10.816406 40.5625 10.816406 40.386719 10.8125 40.214844 C 10.8125 39.851562 10.8125 39.488281 10.8125 39.125 C 10.8125 38.664062 10.808594 38.203125 10.804688 37.738281 C 10.800781 37.378906 10.800781 37.023438 10.800781 36.664062 C 10.800781 36.496094 10.800781 36.324219 10.796875 36.152344 C 10.777344 34.558594 10.777344 34.558594 11.28125 33.925781 C 12.117188 33.25 12.746094 33.175781 13.800781 33.183594 Z M 12.75 35.25 C 12.738281 35.464844 12.734375 35.679688 12.734375 35.894531 C 12.734375 36.03125 12.734375 36.171875 12.734375 36.3125 C 12.738281 36.460938 12.738281 36.613281 12.738281 36.765625 C 12.738281 36.917969 12.738281 37.070312 12.738281 37.226562 C 12.738281 37.71875 12.742188 38.207031 12.742188 38.695312 C 12.742188 39.027344 12.742188 39.355469 12.742188 39.6875 C 12.746094 40.5 12.746094 41.3125 12.75 42.125 C 14.558594 42.128906 16.363281 42.128906 18.171875 42.132812 C 19.007812 42.132812 19.847656 42.132812 20.6875 42.132812 C 21.496094 42.136719 22.304688 42.136719 23.113281 42.136719 C 23.421875 42.136719 23.734375 42.136719 24.042969 42.136719 C 24.472656 42.140625 24.90625 42.140625 25.335938 42.140625 C 25.464844 42.140625 25.597656 42.140625 25.730469 42.140625 C 25.847656 42.140625 25.960938 42.140625 26.082031 42.140625 C 26.183594 42.140625 26.289062 42.140625 26.394531 42.140625 C 26.628906 42.152344 26.628906 42.152344 26.75 42 C 26.761719 41.789062 26.765625 41.578125 26.765625 41.367188 C 26.765625 41.167969 26.765625 41.167969 26.765625 40.960938 C 26.765625 40.8125 26.765625 40.667969 26.765625 40.515625 C 26.765625 40.292969 26.765625 40.292969 26.765625 40.0625 C 26.765625 39.746094 26.765625 39.429688 26.765625 39.113281 C 26.765625 38.628906 26.765625 38.140625 26.765625 37.65625 C 26.765625 37.347656 26.765625 37.039062 26.765625 36.734375 C 26.765625 36.515625 26.765625 36.515625 26.765625 36.289062 C 26.765625 36.15625 26.765625 36.019531 26.765625 35.882812 C 26.765625 35.761719 26.765625 35.644531 26.765625 35.519531 C 26.78125 35.253906 26.78125 35.253906 26.625 35.125 C 26.445312 35.113281 26.269531 35.109375 26.089844 35.109375 C 25.914062 35.109375 25.914062 35.109375 25.738281 35.109375 C 25.609375 35.109375 25.480469 35.109375 25.351562 35.109375 C 25.148438 35.109375 25.148438 35.109375 24.945312 35.109375 C 24.5 35.109375 24.054688 35.109375 23.609375 35.109375 C 23.300781 35.109375 22.992188 35.109375 22.6875 35.109375 C 22.039062 35.109375 21.394531 35.109375 20.746094 35.109375 C 19.917969 35.109375 19.085938 35.109375 18.257812 35.109375 C 17.621094 35.109375 16.984375 35.109375 16.347656 35.109375 C 16.042969 35.109375 15.738281 35.109375 15.429688 35.109375 C 15.003906 35.109375 14.578125 35.109375 14.148438 35.109375 C 13.957031 35.109375 13.957031 35.109375 13.761719 35.109375 C 13.644531 35.109375 13.53125 35.109375 13.410156 35.109375 C 13.257812 35.109375 13.257812 35.109375 13.105469 35.109375 C 12.871094 35.101562 12.871094 35.101562 12.75 35.25 Z M 12.75 35.25 "/>
<path style=" stroke:none;fill-rule:nonzero;fill:rgb(91.37255%,18.82353%,13.725491%);fill-opacity:1;" d="M 31.25 44 C 31.332031 44 31.414062 44 31.5 44 C 31.523438 44.078125 31.550781 44.15625 31.574219 44.234375 C 31.6875 44.585938 31.800781 44.9375 31.914062 45.289062 C 31.972656 45.472656 31.972656 45.472656 32.03125 45.660156 C 32.070312 45.777344 32.109375 45.894531 32.148438 46.015625 C 32.183594 46.121094 32.214844 46.230469 32.253906 46.339844 C 32.386719 46.648438 32.472656 46.804688 32.75 47 C 33.089844 47.0625 33.089844 47.0625 33.46875 47.0625 C 33.609375 47.070312 33.75 47.074219 33.894531 47.078125 C 34.039062 47.082031 34.1875 47.082031 34.335938 47.085938 C 34.484375 47.089844 34.628906 47.09375 34.78125 47.097656 C 35.148438 47.109375 35.511719 47.117188 35.875 47.125 C 35.878906 47.433594 35.882812 47.738281 35.882812 48.046875 C 35.882812 48.128906 35.886719 48.210938 35.886719 48.296875 C 35.890625 48.964844 35.855469 49.632812 35.816406 50.300781 C 35.75 51.402344 35.71875 52.5 35.695312 53.605469 C 35.65625 55.40625 35.597656 57.203125 35.5 59 C 34.425781 59 33.355469 59 32.25 59 C 32.25 58.746094 32.246094 58.488281 32.246094 58.226562 C 32.238281 57.382812 32.230469 56.539062 32.21875 55.695312 C 32.214844 55.183594 32.210938 54.671875 32.207031 54.160156 C 32.203125 53.667969 32.199219 53.171875 32.191406 52.679688 C 32.191406 52.492188 32.1875 52.300781 32.1875 52.113281 C 32.1875 51.851562 32.183594 51.585938 32.179688 51.324219 C 32.175781 51.097656 32.175781 51.097656 32.175781 50.867188 C 32.15625 50.503906 32.15625 50.503906 31.957031 50.265625 C 31.625 50.042969 31.386719 50.070312 31 50.125 C 30.636719 50.398438 30.511719 50.546875 30.433594 51 C 30.433594 51.144531 30.433594 51.289062 30.433594 51.4375 C 30.429688 51.519531 30.429688 51.601562 30.429688 51.683594 C 30.425781 51.949219 30.425781 52.214844 30.421875 52.476562 C 30.421875 52.664062 30.417969 52.847656 30.417969 53.03125 C 30.410156 53.515625 30.410156 54 30.40625 54.484375 C 30.40625 54.976562 30.398438 55.472656 30.394531 55.96875 C 30.386719 56.9375 30.378906 57.90625 30.375 58.875 C 29.34375 58.875 28.3125 58.875 27.25 58.875 C 27.15625 57.585938 27.09375 56.296875 27.058594 55.007812 C 27.050781 54.820312 27.046875 54.636719 27.042969 54.453125 C 27.03125 54.070312 27.019531 53.6875 27.007812 53.300781 C 26.996094 52.816406 26.980469 52.328125 26.964844 51.839844 C 26.957031 51.460938 26.945312 51.082031 26.933594 50.699219 C 26.929688 50.519531 26.921875 50.34375 26.917969 50.164062 C 26.886719 49.148438 26.867188 48.136719 26.875 47.125 C 26.972656 47.121094 27.070312 47.121094 27.167969 47.117188 C 27.5625 47.109375 27.953125 47.097656 28.34375 47.085938 C 28.484375 47.082031 28.621094 47.082031 28.765625 47.078125 C 28.898438 47.074219 29.03125 47.070312 29.171875 47.0625 C 29.355469 47.058594 29.355469 47.058594 29.542969 47.054688 C 29.933594 46.992188 30.097656 46.902344 30.375 46.625 C 30.519531 46.339844 30.519531 46.339844 30.617188 46.015625 C 30.652344 45.898438 30.691406 45.78125 30.730469 45.660156 C 30.765625 45.535156 30.804688 45.414062 30.84375 45.289062 C 30.902344 45.105469 30.902344 45.105469 30.964844 44.914062 C 31.058594 44.609375 31.15625 44.304688 31.25 44 Z M 31.25 44 "/>
<path style=" stroke:none;fill-rule:nonzero;fill:rgb(0.392157%,0.392157%,0%);fill-opacity:1;" d="M 9.996094 51.898438 C 10.859375 52.664062 11.277344 53.671875 11.371094 54.800781 C 11.375 55.199219 11.308594 55.53125 11.207031 55.914062 C 11.121094 56.269531 11.058594 56.628906 11 56.992188 C 10.785156 58.246094 10.464844 59.371094 9.390625 60.175781 C 8.375 60.839844 7.453125 60.972656 6.25 60.875 C 5.683594 60.75 5.234375 60.570312 4.75 60.25 C 4.484375 60.253906 4.222656 60.257812 3.957031 60.265625 C 2.808594 60.214844 1.894531 59.84375 1.046875 59.078125 C 0.132812 58.066406 -0.0585938 57.183594 -0.0390625 55.847656 C 0.0429688 54.863281 0.410156 54.058594 1.125 53.375 C 1.929688 52.71875 2.730469 52.511719 3.742188 52.398438 C 4.433594 52.3125 4.738281 52.097656 5.25 51.625 C 6.851562 50.730469 8.496094 50.835938 9.996094 51.898438 Z M 9.996094 51.898438 "/>
<path style=" stroke:none;fill-rule:nonzero;fill:rgb(0.392157%,0.392157%,0%);fill-opacity:1;" d="M 59.125 51.625 C 59.417969 51.648438 59.714844 51.664062 60.007812 51.671875 C 61.222656 51.730469 62.132812 52.035156 63.03125 52.875 C 63.9375 53.90625 64.117188 55.039062 64.03125 56.367188 C 63.90625 57.351562 63.304688 58.222656 62.53125 58.824219 C 61.78125 59.289062 61.035156 59.507812 60.15625 59.546875 C 59.53125 59.582031 59.285156 59.75 58.847656 60.179688 C 58.085938 60.847656 57.125 60.957031 56.148438 60.921875 C 54.988281 60.785156 54.148438 60.234375 53.375 59.375 C 52.804688 58.597656 52.566406 57.527344 52.652344 56.570312 C 52.691406 56.371094 52.738281 56.175781 52.789062 55.980469 C 52.878906 55.613281 52.941406 55.246094 53 54.875 C 53.199219 53.703125 53.445312 52.816406 54.375 52 C 54.472656 51.914062 54.570312 51.824219 54.671875 51.734375 C 56.003906 50.785156 57.757812 50.710938 59.125 51.625 Z M 59.125 51.625 "/>
<path style=" stroke:none;fill-rule:nonzero;fill:rgb(1.176471%,0.784314%,0.784314%);fill-opacity:1;" d="M 36.402344 33.230469 C 36.601562 33.226562 36.601562 33.226562 36.804688 33.226562 C 36.949219 33.226562 37.09375 33.226562 37.242188 33.222656 C 37.390625 33.222656 37.535156 33.222656 37.6875 33.222656 C 38.003906 33.222656 38.316406 33.21875 38.628906 33.21875 C 39.105469 33.21875 39.585938 33.214844 40.0625 33.210938 C 40.367188 33.210938 40.671875 33.210938 40.976562 33.207031 C 41.191406 33.207031 41.191406 33.207031 41.410156 33.203125 C 41.542969 33.203125 41.675781 33.203125 41.816406 33.207031 C 41.933594 33.203125 42.050781 33.203125 42.171875 33.203125 C 42.601562 33.265625 42.941406 33.441406 43.25 33.75 C 43.324219 34.527344 43.324219 34.527344 43.039062 34.898438 C 42.691406 35.171875 42.523438 35.1875 42.085938 35.191406 C 41.949219 35.195312 41.816406 35.199219 41.675781 35.199219 C 41.539062 35.199219 41.398438 35.199219 41.25 35.199219 C 41.121094 35.203125 40.992188 35.207031 40.859375 35.207031 C 40.375 35.214844 39.890625 35.214844 39.40625 35.21875 C 38.324219 35.230469 37.242188 35.238281 36.125 35.25 C 36.125 37.476562 36.125 39.703125 36.125 42 C 40.664062 42 45.199219 42 49.875 42 C 49.875 39.773438 49.875 37.546875 49.875 35.25 C 48.738281 35.222656 48.738281 35.222656 47.605469 35.203125 C 47.464844 35.199219 47.324219 35.191406 47.175781 35.1875 C 47.03125 35.1875 46.886719 35.183594 46.738281 35.179688 C 46.375 35.125 46.375 35.125 46.140625 34.964844 C 45.941406 34.660156 45.949219 34.359375 45.9375 34.003906 C 46.03125 33.628906 46.199219 33.488281 46.5 33.25 C 46.890625 33.1875 46.890625 33.1875 47.34375 33.1875 C 47.507812 33.1875 47.671875 33.1875 47.839844 33.1875 C 47.925781 33.1875 48.011719 33.191406 48.097656 33.191406 C 48.359375 33.195312 48.617188 33.195312 48.875 33.191406 C 49.886719 33.199219 50.558594 33.234375 51.34375 33.929688 C 51.800781 34.453125 51.90625 34.796875 51.910156 35.492188 C 51.914062 35.640625 51.914062 35.789062 51.917969 35.945312 C 51.917969 36.105469 51.917969 36.265625 51.917969 36.429688 C 51.917969 36.597656 51.917969 36.765625 51.917969 36.933594 C 51.921875 37.285156 51.921875 37.640625 51.921875 37.992188 C 51.921875 38.4375 51.925781 38.886719 51.929688 39.335938 C 51.933594 39.683594 51.933594 40.03125 51.933594 40.375 C 51.933594 40.621094 51.933594 40.867188 51.9375 41.113281 C 51.933594 42.007812 51.875 42.621094 51.375 43.375 C 50.8125 43.820312 50.371094 44.015625 49.660156 44.019531 C 49.539062 44.019531 49.417969 44.019531 49.292969 44.019531 C 49.160156 44.019531 49.027344 44.023438 48.890625 44.023438 C 48.679688 44.023438 48.679688 44.023438 48.464844 44.023438 C 48 44.027344 47.535156 44.027344 47.070312 44.03125 C 46.835938 44.03125 46.835938 44.03125 46.59375 44.03125 C 45.839844 44.035156 45.085938 44.035156 44.335938 44.035156 C 43.464844 44.039062 42.597656 44.042969 41.730469 44.046875 C 40.980469 44.050781 40.226562 44.050781 39.476562 44.050781 C 39.15625 44.054688 38.835938 44.054688 38.515625 44.058594 C 38.070312 44.058594 37.621094 44.058594 37.175781 44.058594 C 37.042969 44.058594 36.910156 44.0625 36.773438 44.0625 C 35.988281 44.058594 35.515625 43.964844 34.875 43.5 C 34.324219 42.90625 34.09375 42.453125 34.089844 41.644531 C 34.085938 41.496094 34.085938 41.347656 34.082031 41.199219 C 34.082031 41.039062 34.082031 40.878906 34.082031 40.714844 C 34.082031 40.550781 34.082031 40.390625 34.082031 40.21875 C 34.078125 39.875 34.078125 39.527344 34.078125 39.179688 C 34.078125 38.738281 34.074219 38.296875 34.070312 37.855469 C 34.066406 37.429688 34.066406 37.007812 34.066406 36.582031 C 34.066406 36.425781 34.0625 36.265625 34.0625 36.105469 C 34.066406 35.125 34.148438 34.523438 34.824219 33.78125 C 35.367188 33.363281 35.726562 33.234375 36.402344 33.230469 Z M 36.402344 33.230469 "/>
<path style=" stroke:none;fill-rule:nonzero;fill:rgb(92.941177%,72.156864%,35.294119%);fill-opacity:1;" d="M 22.40625 6.75 C 22.820312 7.050781 23.148438 7.410156 23.503906 7.78125 C 23.820312 8.0625 24.078125 8.125 24.5 8.125 C 24.429688 8.179688 24.355469 8.230469 24.28125 8.285156 C 23.132812 9.15625 22.628906 9.859375 22.25 11.25 C 22.355469 11.1875 22.460938 11.125 22.570312 11.0625 C 23.058594 10.847656 23.347656 10.796875 23.875 10.875 C 24.25 11.132812 24.25 11.132812 24.5 11.5 C 24.535156 12.085938 24.378906 12.394531 24.015625 12.828125 C 23.558594 13.382812 23.460938 13.945312 23.34375 14.644531 C 23.246094 15.015625 23.191406 15.164062 22.875 15.375 C 22.5 15.4375 22.128906 15.398438 21.75 15.375 C 21.65625 15.371094 21.566406 15.371094 21.472656 15.367188 C 21.03125 15.339844 20.796875 15.292969 20.472656 14.984375 C 20.199219 14.542969 20.199219 14.285156 20.21875 13.773438 C 20.222656 13.628906 20.226562 13.484375 20.234375 13.332031 C 20.238281 13.222656 20.242188 13.113281 20.25 13 C 19.480469 13.570312 19.097656 14.222656 18.921875 15.167969 C 18.886719 15.449219 18.847656 15.730469 18.8125 16.011719 C 18.6875 16.734375 18.300781 17.085938 17.757812 17.53125 C 17.042969 18.132812 16.644531 18.902344 16.523438 19.828125 C 16.511719 20.035156 16.511719 20.035156 16.5 20.25 C 14.683594 20.363281 14.683594 20.363281 13.941406 19.804688 C 13.421875 19.320312 13.050781 18.835938 12.972656 18.117188 C 12.941406 17.308594 13.15625 16.75 13.5625 16.054688 C 13.976562 15.652344 14.441406 15.425781 14.953125 15.167969 C 15.265625 15.027344 15.265625 15.027344 15.375 14.75 C 15.375 14.339844 15.367188 13.933594 15.347656 13.527344 C 15.332031 12.785156 15.496094 12.210938 15.953125 11.605469 C 16.570312 11.039062 17.074219 10.886719 17.90625 10.824219 C 18.34375 10.730469 18.496094 10.617188 18.75 10.25 C 18.792969 9.84375 18.792969 9.84375 18.75 9.40625 C 18.730469 8.640625 18.769531 8.109375 19.25 7.5 C 20.136719 6.578125 21.183594 6.375 22.40625 6.75 Z M 22.40625 6.75 "/>
<path style=" stroke:none;fill-rule:nonzero;fill:rgb(90.980393%,18.82353%,13.725491%);fill-opacity:1;" d="M 29 22.25 C 29.628906 22.550781 30.0625 23 30.375 23.625 C 30.390625 23.792969 30.394531 23.957031 30.398438 24.125 C 30.402344 24.226562 30.402344 24.332031 30.40625 24.4375 C 30.40625 24.550781 30.410156 24.660156 30.410156 24.777344 C 30.414062 24.949219 30.414062 24.949219 30.417969 25.125 C 30.425781 25.492188 30.429688 25.859375 30.4375 26.226562 C 30.445312 26.710938 30.457031 27.191406 30.464844 27.675781 C 30.464844 27.785156 30.46875 27.894531 30.46875 28.011719 C 30.480469 28.519531 30.5 29 30.625 29.5 C 30.804688 29.53125 30.984375 29.558594 31.164062 29.585938 C 31.265625 29.601562 31.363281 29.617188 31.46875 29.632812 C 31.753906 29.652344 31.753906 29.652344 31.953125 29.46875 C 32.164062 29.199219 32.171875 29.070312 32.167969 28.730469 C 32.167969 28.574219 32.167969 28.574219 32.171875 28.417969 C 32.167969 28.304688 32.167969 28.191406 32.167969 28.078125 C 32.167969 27.839844 32.171875 27.601562 32.171875 27.359375 C 32.171875 26.984375 32.171875 26.609375 32.171875 26.234375 C 32.167969 25.871094 32.171875 25.511719 32.175781 25.148438 C 32.171875 25.035156 32.171875 24.925781 32.167969 24.8125 C 32.179688 23.839844 32.507812 23.117188 33.195312 22.429688 C 33.964844 22.109375 34.765625 22.132812 35.554688 22.390625 C 36.058594 22.757812 36.425781 23.148438 36.625 23.75 C 36.636719 24.09375 36.640625 24.4375 36.640625 24.78125 C 36.640625 24.886719 36.640625 24.992188 36.640625 25.101562 C 36.628906 26.777344 36.5625 28.453125 36.5 30.125 C 36.390625 30.125 36.285156 30.125 36.171875 30.125 C 35.765625 30.125 35.359375 30.128906 34.953125 30.136719 C 34.777344 30.140625 34.601562 30.140625 34.425781 30.140625 C 33.074219 30.132812 33.074219 30.132812 31.949219 30.816406 C 31.730469 31.015625 31.519531 31.128906 31.25 31.25 C 31.191406 31.199219 31.136719 31.148438 31.078125 31.09375 C 31 31.027344 30.921875 30.960938 30.84375 30.890625 C 30.769531 30.824219 30.691406 30.757812 30.617188 30.6875 C 30.09375 30.28125 29.695312 30.214844 29.03125 30.199219 C 28.871094 30.195312 28.710938 30.1875 28.542969 30.183594 C 28.371094 30.179688 28.203125 30.175781 28.03125 30.171875 C 27.859375 30.167969 27.6875 30.164062 27.515625 30.15625 C 27.09375 30.144531 26.671875 30.132812 26.25 30.125 C 26.171875 28.449219 26.109375 26.773438 26.085938 25.09375 C 26.082031 24.957031 26.078125 24.820312 26.074219 24.683594 C 26.070312 23.910156 26.105469 23.460938 26.625 22.875 C 27.394531 22.195312 27.988281 22.15625 29 22.25 Z M 29 22.25 "/>
<path style=" stroke:none;fill-rule:nonzero;fill:rgb(80.000001%,78.039217%,64.705884%);fill-opacity:1;" d="M 31.25 44 C 31.292969 44 31.332031 44 31.375 44 C 31.394531 44.828125 31.40625 45.65625 31.417969 46.484375 C 31.421875 46.765625 31.425781 47.046875 31.429688 47.328125 C 31.441406 47.730469 31.445312 48.136719 31.449219 48.539062 C 31.453125 48.667969 31.457031 48.792969 31.460938 48.921875 C 31.460938 49.257812 31.453125 49.550781 31.375 49.875 C 31.003906 50.191406 31.003906 50.191406 30.625 50.375 C 30.449219 50.726562 30.480469 51.019531 30.472656 51.410156 C 30.472656 51.53125 30.472656 51.53125 30.46875 51.65625 C 30.464844 51.921875 30.464844 52.1875 30.460938 52.453125 C 30.457031 52.640625 30.457031 52.824219 30.453125 53.007812 C 30.445312 53.492188 30.441406 53.980469 30.433594 54.464844 C 30.425781 54.960938 30.421875 55.457031 30.414062 55.953125 C 30.398438 56.929688 30.386719 57.902344 30.375 58.875 C 29.34375 58.875 28.3125 58.875 27.25 58.875 C 27.15625 57.585938 27.09375 56.296875 27.058594 55.007812 C 27.050781 54.820312 27.046875 54.636719 27.042969 54.453125 C 27.03125 54.070312 27.019531 53.6875 27.007812 53.300781 C 26.996094 52.816406 26.980469 52.328125 26.964844 51.839844 C 26.957031 51.460938 26.945312 51.082031 26.933594 50.699219 C 26.929688 50.519531 26.921875 50.34375 26.917969 50.164062 C 26.886719 49.148438 26.867188 48.136719 26.875 47.125 C 26.972656 47.121094 27.070312 47.121094 27.167969 47.117188 C 27.5625 47.109375 27.953125 47.097656 28.34375 47.085938 C 28.484375 47.082031 28.621094 47.082031 28.765625 47.078125 C 28.898438 47.074219 29.03125 47.070312 29.171875 47.0625 C 29.355469 47.058594 29.355469 47.058594 29.542969 47.054688 C 29.933594 46.992188 30.097656 46.902344 30.375 46.625 C 30.519531 46.339844 30.519531 46.339844 30.617188 46.015625 C 30.652344 45.898438 30.691406 45.78125 30.730469 45.660156 C 30.765625 45.535156 30.804688 45.414062 30.84375 45.289062 C 30.902344 45.105469 30.902344 45.105469 30.964844 44.914062 C 31.058594 44.609375 31.15625 44.304688 31.25 44 Z M 31.25 44 "/>
<path style=" stroke:none;fill-rule:nonzero;fill:rgb(79.215688%,77.254903%,64.313728%);fill-opacity:1;" d="M 15.75 47.125 C 16.988281 47.125 18.226562 47.125 19.5 47.125 C 19.6875 49.179688 19.832031 51.230469 19.945312 53.289062 C 19.96875 53.710938 19.992188 54.132812 20.015625 54.558594 C 20.03125 54.816406 20.046875 55.074219 20.058594 55.335938 C 20.097656 56.011719 20.152344 56.6875 20.222656 57.359375 C 20.257812 57.703125 20.261719 58.042969 20.257812 58.390625 C 20.257812 58.507812 20.253906 58.625 20.253906 58.742188 C 20.253906 58.828125 20.25 58.914062 20.25 59 C 19.914062 59.011719 19.578125 59.023438 19.242188 59.03125 C 19.148438 59.035156 19.054688 59.039062 18.957031 59.042969 C 18.238281 59.054688 17.832031 58.929688 17.25 58.5 C 16.8125 57.949219 16.660156 57.484375 16.601562 56.796875 C 16.589844 56.703125 16.582031 56.613281 16.570312 56.515625 C 16.539062 56.214844 16.511719 55.910156 16.484375 55.605469 C 16.460938 55.394531 16.4375 55.183594 16.417969 54.96875 C 16.371094 54.523438 16.328125 54.082031 16.285156 53.636719 C 16.230469 53.066406 16.171875 52.5 16.117188 51.933594 C 16.058594 51.390625 16.003906 50.84375 15.953125 50.300781 C 15.941406 50.199219 15.929688 50.097656 15.917969 49.992188 C 15.890625 49.695312 15.863281 49.402344 15.832031 49.109375 C 15.824219 49.023438 15.816406 48.941406 15.808594 48.851562 C 15.753906 48.269531 15.75 47.71875 15.75 47.125 Z M 15.75 47.125 "/>
<path style=" stroke:none;fill-rule:nonzero;fill:rgb(86.274511%,5.098039%,5.098039%);fill-opacity:1;" d="M 21.375 47.125 C 22.570312 47.125 23.765625 47.125 25 47.125 C 25.140625 48.8125 25.140625 48.8125 25.164062 49.546875 C 25.167969 49.792969 25.167969 49.792969 25.175781 50.042969 C 25.183594 50.21875 25.1875 50.390625 25.191406 50.566406 C 25.199219 50.75 25.203125 50.933594 25.207031 51.117188 C 25.21875 51.5 25.230469 51.882812 25.242188 52.265625 C 25.253906 52.753906 25.269531 53.238281 25.285156 53.722656 C 25.296875 54.101562 25.304688 54.484375 25.316406 54.863281 C 25.320312 55.039062 25.328125 55.21875 25.332031 55.398438 C 25.367188 56.597656 25.378906 57.796875 25.375 59 C 24.300781 59 23.230469 59 22.125 59 C 22.046875 58.53125 21.980469 58.109375 21.957031 57.640625 C 21.949219 57.527344 21.941406 57.410156 21.933594 57.292969 C 21.929688 57.167969 21.921875 57.046875 21.914062 56.917969 C 21.902344 56.722656 21.902344 56.722656 21.890625 56.523438 C 21.867188 56.101562 21.84375 55.679688 21.820312 55.257812 C 21.789062 54.679688 21.753906 54.101562 21.71875 53.523438 C 21.710938 53.378906 21.703125 53.238281 21.695312 53.089844 C 21.621094 51.769531 21.535156 50.449219 21.445312 49.132812 C 21.433594 48.992188 21.425781 48.851562 21.417969 48.710938 C 21.410156 48.59375 21.398438 48.476562 21.390625 48.355469 C 21.371094 47.945312 21.375 47.535156 21.375 47.125 Z M 21.375 47.125 "/>
<path style=" stroke:none;fill-rule:nonzero;fill:rgb(85.09804%,84.313726%,76.862746%);fill-opacity:1;" d="M 37.75 47.125 C 38.945312 47.125 40.140625 47.125 41.375 47.125 C 41.375 48.125 41.332031 49.101562 41.257812 50.097656 C 41.242188 50.289062 41.226562 50.480469 41.21875 50.671875 C 41.148438 51.800781 41.070312 52.652344 40.25 53.5 C 39.769531 54.347656 39.648438 55.160156 39.75 56.125 C 39.902344 56.652344 40.070312 57.1875 40.453125 57.589844 C 40.625 57.875 40.625 57.875 40.625 59 C 39.550781 59 38.480469 59 37.375 59 C 37.347656 56.476562 37.402344 53.964844 37.492188 51.445312 C 37.496094 51.289062 37.503906 51.132812 37.507812 50.972656 C 37.523438 50.519531 37.542969 50.070312 37.558594 49.617188 C 37.5625 49.480469 37.566406 49.347656 37.574219 49.207031 C 37.578125 49.078125 37.582031 48.949219 37.585938 48.820312 C 37.59375 48.710938 37.597656 48.597656 37.601562 48.484375 C 37.632812 48.03125 37.695312 47.578125 37.75 47.125 Z M 37.75 47.125 "/>
<path style=" stroke:none;fill-rule:nonzero;fill:rgb(79.607844%,77.64706%,64.705884%);fill-opacity:1;" d="M 29 22.25 C 29.628906 22.550781 30.0625 23 30.375 23.625 C 30.390625 23.792969 30.394531 23.957031 30.398438 24.125 C 30.402344 24.226562 30.402344 24.332031 30.40625 24.4375 C 30.40625 24.550781 30.410156 24.660156 30.410156 24.777344 C 30.414062 24.949219 30.414062 24.949219 30.417969 25.125 C 30.425781 25.492188 30.429688 25.859375 30.4375 26.226562 C 30.445312 26.710938 30.457031 27.191406 30.464844 27.675781 C 30.464844 27.785156 30.46875 27.894531 30.46875 28.011719 C 30.480469 28.519531 30.5 29 30.625 29.5 C 30.871094 29.582031 31.121094 29.664062 31.375 29.75 C 31.375 30.246094 31.375 30.738281 31.375 31.25 C 31.132812 31.0625 30.886719 30.875 30.640625 30.6875 C 30.09375 30.300781 29.710938 30.214844 29.03125 30.199219 C 28.871094 30.195312 28.710938 30.1875 28.542969 30.183594 C 28.371094 30.179688 28.203125 30.175781 28.03125 30.171875 C 27.859375 30.167969 27.6875 30.164062 27.515625 30.15625 C 27.09375 30.144531 26.671875 30.132812 26.25 30.125 C 26.171875 28.449219 26.109375 26.773438 26.085938 25.09375 C 26.082031 24.957031 26.078125 24.820312 26.074219 24.683594 C 26.070312 23.910156 26.105469 23.460938 26.625 22.875 C 27.394531 22.195312 27.988281 22.15625 29 22.25 Z M 29 22.25 "/>
<path style=" stroke:none;fill-rule:nonzero;fill:rgb(79.215688%,77.254903%,64.313728%);fill-opacity:1;" d="M 16.625 22.25 C 17.320312 22.546875 17.679688 23.082031 18 23.75 C 18.097656 24.160156 18.125 24.566406 18.144531 24.988281 C 18.152344 25.105469 18.15625 25.21875 18.164062 25.339844 C 18.1875 25.703125 18.207031 26.070312 18.226562 26.4375 C 18.242188 26.683594 18.257812 26.929688 18.273438 27.175781 C 18.300781 27.628906 18.328125 28.082031 18.351562 28.535156 C 18.355469 28.625 18.359375 28.714844 18.363281 28.808594 C 18.378906 29.246094 18.375 29.6875 18.375 30.125 C 16.929688 30.125 15.488281 30.125 14 30.125 C 13.585938 26.5 13.585938 26.5 13.570312 25.015625 C 13.566406 24.910156 13.566406 24.808594 13.5625 24.703125 C 13.566406 23.875 13.820312 23.417969 14.308594 22.75 C 14.980469 22.09375 15.730469 22.117188 16.625 22.25 Z M 16.625 22.25 "/>
<path style=" stroke:none;fill-rule:nonzero;fill:rgb(86.274511%,5.882353%,5.882353%);fill-opacity:1;" d="M 45.875 33.875 C 45.917969 33.875 45.957031 33.875 46 33.875 C 46.015625 34.015625 46.03125 34.152344 46.046875 34.296875 C 46.082031 34.753906 46.082031 34.753906 46.375 35 C 46.738281 35.042969 46.738281 35.042969 47.160156 35.046875 C 47.394531 35.054688 47.394531 35.054688 47.636719 35.058594 C 47.800781 35.0625 47.964844 35.066406 48.132812 35.070312 C 48.457031 35.078125 48.78125 35.085938 49.105469 35.09375 C 49.25 35.097656 49.394531 35.101562 49.542969 35.101562 C 49.875 35.125 49.875 35.125 50 35.25 C 50.011719 35.460938 50.015625 35.671875 50.015625 35.882812 C 50.015625 36.015625 50.015625 36.152344 50.015625 36.289062 C 50.015625 36.511719 50.015625 36.511719 50.015625 36.734375 C 50.015625 36.882812 50.015625 37.03125 50.015625 37.1875 C 50.015625 37.503906 50.015625 37.820312 50.015625 38.136719 C 50.015625 38.621094 50.015625 39.109375 50.015625 39.59375 C 50.015625 39.902344 50.015625 40.210938 50.015625 40.515625 C 50.015625 40.664062 50.015625 40.808594 50.015625 40.960938 C 50.015625 41.160156 50.015625 41.160156 50.015625 41.367188 C 50.015625 41.488281 50.015625 41.605469 50.015625 41.730469 C 50 42 50 42 49.875 42.125 C 49.625 42.128906 49.375 42.128906 49.125 42.125 C 49.097656 42.015625 49.070312 41.902344 49.042969 41.789062 C 48.480469 39.664062 47.496094 38.246094 45.667969 37.003906 C 43.765625 36.015625 41.578125 36.167969 39.5 36.15625 C 39.171875 36.152344 38.84375 36.148438 38.515625 36.144531 C 37.71875 36.136719 36.921875 36.128906 36.125 36.125 C 36.125 38.0625 36.125 40.003906 36.125 42 C 36.082031 42 36.042969 42 36 42 C 35.996094 41.039062 35.996094 40.082031 35.992188 39.121094 C 35.992188 38.796875 35.992188 38.46875 35.992188 38.144531 C 35.988281 37.675781 35.988281 37.207031 35.988281 36.738281 C 35.988281 36.589844 35.988281 36.445312 35.984375 36.292969 C 35.984375 36.089844 35.984375 36.089844 35.984375 35.882812 C 35.984375 35.765625 35.984375 35.644531 35.984375 35.519531 C 36 35.25 36 35.25 36.125 35.125 C 36.332031 35.109375 36.535156 35.105469 36.742188 35.101562 C 36.871094 35.097656 37.003906 35.097656 37.140625 35.09375 C 37.28125 35.09375 37.425781 35.089844 37.574219 35.089844 C 37.792969 35.085938 37.792969 35.085938 38.015625 35.082031 C 38.484375 35.074219 38.953125 35.070312 39.421875 35.0625 C 40.039062 35.054688 40.652344 35.042969 41.269531 35.035156 C 41.410156 35.035156 41.554688 35.03125 41.699219 35.03125 C 41.898438 35.027344 41.898438 35.027344 42.101562 35.023438 C 42.21875 35.023438 42.335938 35.019531 42.453125 35.019531 C 42.769531 35.011719 42.769531 35.011719 43.125 34.875 C 43.167969 34.628906 43.207031 34.378906 43.25 34.125 C 44.117188 34.125 44.984375 34.125 45.875 34.125 C 45.875 34.042969 45.875 33.960938 45.875 33.875 Z M 45.875 33.875 "/>
<path style=" stroke:none;fill-rule:nonzero;fill:rgb(91.37255%,18.82353%,13.725491%);fill-opacity:1;" d="M 47.625 22.25 C 48.253906 22.550781 48.6875 23 49 23.625 C 49.03125 24.21875 49.023438 24.816406 49.023438 25.414062 C 49.023438 25.5 49.023438 25.585938 49.023438 25.675781 C 49.023438 27.175781 48.925781 28.636719 48.75 30.125 C 47.304688 30.125 45.863281 30.125 44.375 30.125 C 44.375 28.371094 44.375 28.371094 44.5 27.625 C 44.519531 27.324219 44.535156 27.023438 44.550781 26.722656 C 44.558594 26.554688 44.566406 26.382812 44.574219 26.214844 C 44.589844 25.949219 44.601562 25.6875 44.613281 25.421875 C 44.6875 23.59375 44.6875 23.59375 45.25 22.875 C 46.007812 22.1875 46.621094 22.15625 47.625 22.25 Z M 47.625 22.25 "/>
<path style=" stroke:none;fill-rule:nonzero;fill:rgb(85.09804%,84.313726%,76.47059%);fill-opacity:1;" d="M 41.644531 22.328125 C 42.140625 22.570312 42.503906 22.949219 42.765625 23.425781 C 43.019531 24.175781 42.921875 24.972656 42.875 25.75 C 42.867188 25.894531 42.859375 26.035156 42.851562 26.183594 C 42.679688 29.058594 42.679688 29.058594 42.5 30.125 C 41.140625 30.125 39.777344 30.125 38.375 30.125 C 38.371094 28.832031 38.367188 27.542969 38.375 26.25 C 38.375 26.113281 38.375 25.976562 38.378906 25.835938 C 38.378906 25.496094 38.386719 25.160156 38.398438 24.820312 C 38.398438 24.726562 38.398438 24.628906 38.402344 24.53125 C 38.4375 23.65625 38.824219 23.042969 39.445312 22.4375 C 40.148438 22.128906 40.902344 22.113281 41.644531 22.328125 Z M 41.644531 22.328125 "/>
<path style=" stroke:none;fill-rule:nonzero;fill:rgb(86.666667%,5.098039%,5.098039%);fill-opacity:1;" d="M 23.023438 22.335938 C 23.675781 22.671875 24.023438 23.195312 24.25 23.875 C 24.269531 24.183594 24.28125 24.492188 24.289062 24.804688 C 24.292969 24.894531 24.292969 24.988281 24.296875 25.082031 C 24.304688 25.277344 24.308594 25.472656 24.3125 25.667969 C 24.320312 25.960938 24.328125 26.253906 24.335938 26.546875 C 24.34375 26.738281 24.347656 26.929688 24.351562 27.125 C 24.355469 27.207031 24.355469 27.292969 24.359375 27.378906 C 24.382812 28.296875 24.375 29.207031 24.375 30.125 C 23.015625 30.125 21.652344 30.125 20.25 30.125 C 20.128906 29.269531 20.0625 28.417969 20.007812 27.558594 C 19.992188 27.292969 19.976562 27.027344 19.957031 26.761719 C 19.761719 23.691406 19.761719 23.691406 20.316406 22.953125 C 21.046875 22.144531 21.992188 22.011719 23.023438 22.335938 Z M 23.023438 22.335938 "/>
<path style=" stroke:none;fill-rule:nonzero;fill:rgb(92.156863%,71.764708%,34.901962%);fill-opacity:1;" d="M 46.148438 52.453125 C 46.632812 52.722656 46.878906 52.992188 47.125 53.5 C 47.167969 53.710938 47.207031 53.925781 47.242188 54.140625 C 47.328125 54.648438 47.328125 54.648438 47.664062 55.046875 C 47.773438 55.113281 47.886719 55.179688 48 55.25 C 48.511719 55.613281 48.777344 55.90625 49 56.5 C 49.070312 57.15625 48.976562 57.566406 48.625 58.125 C 48.210938 58.589844 47.949219 58.828125 47.324219 58.917969 C 46.644531 58.957031 46.226562 58.933594 45.703125 58.476562 C 45.429688 58.207031 45.210938 57.945312 44.984375 57.632812 C 44.53125 57.308594 44.324219 57.359375 43.773438 57.382812 C 43.023438 57.410156 42.617188 57.347656 42.0625 56.839844 C 41.667969 56.386719 41.515625 56.03125 41.453125 55.4375 C 41.539062 54.640625 41.890625 54.128906 42.5 53.625 C 42.78125 53.492188 43.066406 53.371094 43.355469 53.253906 C 43.730469 53.074219 43.972656 52.804688 44.25 52.5 C 44.847656 52.082031 45.511719 52.167969 46.148438 52.453125 Z M 46.148438 52.453125 "/>
<path style=" stroke:none;fill-rule:nonzero;fill:rgb(92.54902%,72.156864%,35.294119%);fill-opacity:1;" d="M 8 53 C 8.511719 53.160156 8.882812 53.453125 9.179688 53.898438 C 9.4375 54.414062 9.464844 54.9375 9.375 55.5 C 9.332031 55.582031 9.292969 55.660156 9.25 55.742188 C 9.097656 56.058594 9.089844 56.304688 9.078125 56.65625 C 9.011719 57.507812 8.792969 58.082031 8.1875 58.6875 C 7.542969 58.964844 6.941406 58.988281 6.25 58.875 C 6.03125 58.734375 6.03125 58.734375 5.851562 58.5625 C 5.390625 58.152344 4.886719 58.21875 4.304688 58.242188 C 4.214844 58.25 4.121094 58.253906 4.027344 58.261719 C 3.363281 58.296875 3.03125 58.1875 2.5 57.75 C 1.996094 57.191406 1.828125 56.777344 1.839844 56.015625 C 1.898438 55.566406 2.0625 55.203125 2.375 54.875 C 3.074219 54.375 3.582031 54.308594 4.429688 54.34375 C 4.53125 54.347656 4.636719 54.347656 4.742188 54.351562 C 4.996094 54.355469 5.246094 54.367188 5.5 54.375 C 5.535156 54.300781 5.570312 54.222656 5.605469 54.144531 C 6.148438 53.128906 6.925781 52.871094 8 53 Z M 8 53 "/>
<path style=" stroke:none;fill-rule:nonzero;fill:rgb(92.156863%,71.764708%,35.294119%);fill-opacity:1;" d="M 57.90625 53.164062 C 58.25 53.375 58.25 53.375 58.492188 53.59375 C 58.886719 53.832031 59.179688 53.707031 59.625 53.625 C 60.480469 53.542969 60.953125 53.707031 61.625 54.25 C 61.988281 54.648438 62.109375 54.980469 62.164062 55.523438 C 62.109375 56.214844 61.875 56.765625 61.367188 57.242188 C 60.902344 57.496094 60.574219 57.492188 60.054688 57.453125 C 59.183594 57.390625 59.183594 57.390625 58.414062 57.742188 C 58.152344 58.039062 58.152344 58.039062 57.945312 58.355469 C 57.726562 58.65625 57.601562 58.753906 57.25 58.875 C 56.644531 58.964844 56.019531 59.019531 55.464844 58.726562 C 54.996094 58.332031 54.660156 57.945312 54.59375 57.320312 C 54.59375 57.214844 54.59375 57.109375 54.59375 57 C 54.59375 56.894531 54.59375 56.789062 54.59375 56.679688 C 54.628906 56.351562 54.730469 56.164062 54.875 55.875 C 54.917969 55.546875 54.917969 55.546875 54.929688 55.203125 C 54.992188 54.429688 55.15625 53.917969 55.75 53.398438 C 56.429688 52.902344 57.136719 52.855469 57.90625 53.164062 Z M 57.90625 53.164062 "/>
<path style=" stroke:none;fill-rule:nonzero;fill:rgb(0.392157%,49.019608%,54.11765%);fill-opacity:1;" d="M 13.410156 35.109375 C 13.527344 35.109375 13.640625 35.109375 13.761719 35.109375 C 13.953125 35.109375 13.953125 35.109375 14.148438 35.109375 C 14.285156 35.109375 14.417969 35.109375 14.554688 35.109375 C 15 35.109375 15.445312 35.109375 15.890625 35.109375 C 16.199219 35.109375 16.507812 35.109375 16.8125 35.109375 C 17.460938 35.109375 18.105469 35.109375 18.753906 35.109375 C 19.582031 35.109375 20.414062 35.109375 21.242188 35.109375 C 21.878906 35.109375 22.515625 35.109375 23.152344 35.109375 C 23.457031 35.109375 23.761719 35.109375 24.070312 35.109375 C 24.496094 35.109375 24.921875 35.109375 25.351562 35.109375 C 25.476562 35.109375 25.605469 35.109375 25.738281 35.109375 C 25.910156 35.109375 25.910156 35.109375 26.089844 35.109375 C 26.191406 35.109375 26.292969 35.109375 26.394531 35.109375 C 26.625 35.125 26.625 35.125 26.75 35.25 C 26.761719 35.460938 26.765625 35.671875 26.765625 35.882812 C 26.765625 36.015625 26.765625 36.152344 26.765625 36.289062 C 26.765625 36.511719 26.765625 36.511719 26.765625 36.734375 C 26.765625 36.882812 26.765625 37.03125 26.765625 37.1875 C 26.765625 37.503906 26.765625 37.820312 26.765625 38.136719 C 26.765625 38.621094 26.765625 39.109375 26.765625 39.59375 C 26.765625 39.902344 26.765625 40.210938 26.765625 40.515625 C 26.765625 40.664062 26.765625 40.808594 26.765625 40.960938 C 26.765625 41.160156 26.765625 41.160156 26.765625 41.367188 C 26.765625 41.488281 26.765625 41.605469 26.765625 41.730469 C 26.75 42 26.75 42 26.625 42.125 C 26.445312 42.136719 26.265625 42.140625 26.082031 42.140625 C 25.964844 42.140625 25.847656 42.140625 25.730469 42.140625 C 25.601562 42.140625 25.46875 42.140625 25.335938 42.140625 C 25.203125 42.140625 25.066406 42.140625 24.925781 42.140625 C 24.476562 42.140625 24.027344 42.136719 23.578125 42.136719 C 23.265625 42.136719 22.957031 42.136719 22.644531 42.136719 C 21.910156 42.136719 21.171875 42.136719 20.4375 42.132812 C 19.515625 42.132812 18.597656 42.132812 17.675781 42.132812 C 16.035156 42.128906 14.390625 42.128906 12.75 42.125 C 12.75 42.082031 12.75 42.042969 12.75 42 C 17.039062 42 21.328125 42 25.75 42 C 24.976562 39.527344 24.222656 38.105469 22 36.875 C 21.128906 36.464844 20.34375 36.238281 19.378906 36.222656 C 19.230469 36.222656 19.082031 36.21875 18.929688 36.214844 C 18.691406 36.214844 18.691406 36.214844 18.449219 36.210938 C 18.207031 36.207031 18.207031 36.207031 17.957031 36.203125 C 17.527344 36.195312 17.09375 36.191406 16.664062 36.183594 C 16.222656 36.175781 15.78125 36.171875 15.339844 36.164062 C 14.476562 36.148438 13.613281 36.136719 12.75 36.125 C 12.746094 35.832031 12.746094 35.542969 12.75 35.25 C 12.945312 35.054688 13.136719 35.109375 13.410156 35.109375 Z M 13.410156 35.109375 "/>
<path style=" stroke:none;fill-rule:nonzero;fill:rgb(84.705883%,5.098039%,5.098039%);fill-opacity:1;" d="M 32.25 50.75 C 32.292969 50.75 32.332031 50.75 32.375 50.75 C 32.375 51.367188 32.375 51.988281 32.375 52.625 C 32.820312 52.714844 33.191406 52.769531 33.636719 52.789062 C 33.808594 52.796875 33.808594 52.796875 33.988281 52.804688 C 34.109375 52.808594 34.226562 52.816406 34.351562 52.820312 C 34.472656 52.824219 34.597656 52.832031 34.722656 52.835938 C 35.023438 52.851562 35.324219 52.863281 35.625 52.875 C 35.640625 54.921875 35.617188 56.957031 35.5 59 C 34.425781 59 33.355469 59 32.25 59 C 32.25 56.277344 32.25 53.554688 32.25 50.75 Z M 32.25 50.75 "/>
<path style=" stroke:none;fill-rule:nonzero;fill:rgb(92.54902%,72.156864%,35.294119%);fill-opacity:1;" d="M 32.796875 5.25 C 33.402344 5.710938 33.917969 6.191406 34.117188 6.9375 C 34.121094 7.039062 34.121094 7.144531 34.125 7.25 C 34.050781 7.28125 33.976562 7.3125 33.898438 7.34375 C 33.507812 7.566406 33.335938 7.882812 33.09375 8.253906 C 32.660156 8.742188 32.179688 8.890625 31.546875 8.933594 C 31.335938 8.941406 31.125 8.949219 30.914062 8.953125 C 30.703125 8.960938 30.492188 8.964844 30.28125 8.972656 C 30.1875 8.976562 30.09375 8.976562 30 8.980469 C 29.722656 8.992188 29.722656 8.992188 29.375 9.125 C 28.480469 9.253906 28.03125 8.960938 27.300781 8.453125 C 26.75 8.082031 26.242188 8.109375 25.601562 8.117188 C 25.507812 8.117188 25.414062 8.117188 25.316406 8.117188 C 25.085938 8.121094 24.855469 8.121094 24.625 8.125 C 25.289062 7.582031 25.738281 7.324219 26.621094 7.339844 C 27.027344 7.394531 27.375 7.585938 27.75 7.75 C 28.324219 7.828125 28.324219 7.828125 28.824219 7.597656 C 29.03125 7.335938 29.109375 7.101562 29.210938 6.78125 C 29.804688 5.203125 31.257812 4.792969 32.796875 5.25 Z M 32.796875 5.25 "/>
<path style=" stroke:none;fill-rule:nonzero;fill:rgb(1.568628%,1.176471%,0.784314%);fill-opacity:1;" d="M 34.992188 12.46875 C 35.25 12.5 35.25 12.5 35.464844 12.625 C 35.96875 12.847656 36.546875 12.789062 37.089844 12.789062 C 37.609375 12.800781 37.824219 12.835938 38.253906 13.15625 C 38.5 13.5 38.5 13.5 38.546875 13.78125 C 38.445312 14.371094 38.324219 14.863281 38 15.375 C 37.566406 15.664062 37.382812 15.65625 36.875 15.625 C 36.792969 15.582031 36.710938 15.542969 36.625 15.5 C 35.8125 15.398438 35.167969 15.523438 34.5 16 C 34.347656 16.152344 34.199219 16.308594 34.054688 16.46875 C 33.734375 16.808594 33.648438 16.871094 33.171875 16.976562 C 32.71875 16.867188 32.515625 16.730469 32.242188 16.347656 C 32.039062 15.964844 31.984375 15.683594 32 15.25 C 32.277344 14.898438 32.558594 14.667969 32.929688 14.421875 C 33.355469 14.027344 33.570312 13.574219 33.832031 13.058594 C 34.144531 12.484375 34.355469 12.472656 34.992188 12.46875 Z M 34.992188 12.46875 "/>
<path style=" stroke:none;fill-rule:nonzero;fill:rgb(78.431374%,76.47059%,63.529414%);fill-opacity:1;" d="M 37.5 50.875 C 37.542969 50.875 37.582031 50.875 37.625 50.875 C 37.625 51.535156 37.625 52.195312 37.625 52.875 C 38.613281 52.875 39.605469 52.875 40.625 52.875 C 40.339844 53.382812 40.339844 53.382812 40.050781 53.886719 C 39.664062 54.679688 39.605469 55.621094 39.847656 56.464844 C 40.078125 57.074219 40.078125 57.074219 40.453125 57.589844 C 40.625 57.875 40.625 57.875 40.625 59 C 39.550781 59 38.480469 59 37.375 59 C 37.359375 56.289062 37.40625 53.585938 37.5 50.875 Z M 37.5 50.875 "/>
<path style=" stroke:none;fill-rule:nonzero;fill:rgb(85.882354%,85.09804%,77.254903%);fill-opacity:1;" d="M 28 22.25 C 28.761719 22.199219 29.140625 22.238281 29.75 22.75 C 30.160156 23.214844 30.386719 23.507812 30.398438 24.125 C 30.402344 24.226562 30.402344 24.332031 30.40625 24.4375 C 30.40625 24.550781 30.410156 24.660156 30.410156 24.777344 C 30.414062 24.949219 30.414062 24.949219 30.417969 25.125 C 30.425781 25.492188 30.429688 25.859375 30.4375 26.226562 C 30.445312 26.710938 30.457031 27.191406 30.464844 27.675781 C 30.464844 27.785156 30.46875 27.894531 30.46875 28.011719 C 30.480469 28.519531 30.5 29 30.625 29.5 C 30.871094 29.582031 31.121094 29.664062 31.375 29.75 C 31.375 30.246094 31.375 30.738281 31.375 31.25 C 31.226562 31.132812 31.082031 31.019531 30.929688 30.898438 C 30.234375 30.378906 29.613281 30.132812 28.75 30 C 28.664062 29.175781 28.578125 28.355469 28.488281 27.53125 C 28.460938 27.253906 28.429688 26.972656 28.402344 26.695312 C 28.085938 23.722656 28.085938 23.722656 28 22.25 Z M 28 22.25 "/>
<path style=" stroke:none;fill-rule:nonzero;fill:rgb(98.039216%,84.705883%,52.156866%);fill-opacity:1;" d="M 58.25 53.5 C 58.3125 53.542969 58.378906 53.585938 58.445312 53.632812 C 58.871094 53.796875 59.179688 53.699219 59.625 53.625 C 60.480469 53.542969 60.953125 53.707031 61.625 54.25 C 61.988281 54.648438 62.109375 54.980469 62.164062 55.523438 C 62.109375 56.214844 61.875 56.765625 61.367188 57.242188 C 60.90625 57.496094 60.5625 57.496094 60.042969 57.464844 C 59.210938 57.40625 59.210938 57.40625 58.453125 57.695312 C 58.269531 57.914062 58.125 58.121094 58 58.375 C 57.875 58.332031 57.753906 58.292969 57.625 58.25 C 57.453125 57.832031 57.480469 57.382812 57.476562 56.9375 C 57.476562 56.796875 57.472656 56.65625 57.472656 56.511719 C 57.5 56.128906 57.574219 55.957031 57.75 55.625 C 57.792969 55.296875 57.792969 55.296875 57.804688 54.953125 C 57.847656 54.371094 57.945312 53.992188 58.25 53.5 Z M 58.25 53.5 "/>
<path style=" stroke:none;fill-rule:nonzero;fill:rgb(97.647059%,84.313726%,51.764709%);fill-opacity:1;" d="M 47 54.125 C 47.25 54.375 47.25 54.375 47.390625 54.65625 C 47.621094 54.996094 47.796875 55.136719 48.125 55.367188 C 48.578125 55.695312 48.820312 55.953125 49 56.5 C 49.070312 57.15625 48.976562 57.566406 48.625 58.125 C 48.210938 58.589844 47.949219 58.828125 47.324219 58.917969 C 46.644531 58.957031 46.226562 58.933594 45.703125 58.476562 C 45.546875 58.320312 45.398438 58.164062 45.25 58 C 44.773438 57.464844 44.773438 57.464844 44.125 57.25 C 44.246094 56.464844 44.625 55.796875 45.25 55.300781 C 45.496094 55.148438 45.742188 55.007812 46 54.875 C 46.382812 54.652344 46.703125 54.457031 47 54.125 Z M 47 54.125 "/>
<path style=" stroke:none;fill-rule:nonzero;fill:rgb(1.176471%,0.784314%,0.392157%);fill-opacity:1;" d="M 23.875 10.875 C 24.25 11.132812 24.25 11.132812 24.5 11.5 C 24.535156 12.085938 24.378906 12.394531 24.015625 12.828125 C 23.558594 13.382812 23.460938 13.945312 23.34375 14.644531 C 23.246094 15.015625 23.191406 15.164062 22.875 15.375 C 22.5 15.4375 22.128906 15.398438 21.75 15.375 C 21.65625 15.371094 21.566406 15.371094 21.472656 15.367188 C 21.046875 15.339844 20.796875 15.292969 20.476562 15.003906 C 20.160156 14.476562 20.175781 14.042969 20.1875 13.4375 C 20.1875 13.332031 20.183594 13.226562 20.179688 13.117188 C 20.183594 12.617188 20.214844 12.316406 20.460938 11.871094 C 20.796875 11.585938 20.980469 11.535156 21.414062 11.492188 C 21.875 11.429688 22.203125 11.363281 22.59375 11.109375 C 23.074219 10.832031 23.328125 10.785156 23.875 10.875 Z M 23.875 10.875 "/>
<path style=" stroke:none;fill-rule:nonzero;fill:rgb(89.803922%,18.431373%,13.333334%);fill-opacity:1;" d="M 43.25 47.125 C 44.488281 47.125 45.726562 47.125 47 47.125 C 46.980469 47.515625 46.964844 47.910156 46.945312 48.3125 C 46.9375 48.496094 46.9375 48.496094 46.929688 48.679688 C 46.898438 49.335938 46.839844 49.976562 46.75 50.625 C 46.589844 50.621094 46.425781 50.621094 46.261719 50.617188 C 46.046875 50.613281 45.832031 50.613281 45.617188 50.609375 C 45.457031 50.605469 45.457031 50.605469 45.296875 50.601562 C 44.460938 50.597656 43.738281 50.710938 43 51.125 C 42.960938 49.765625 43.082031 48.476562 43.25 47.125 Z M 43.25 47.125 "/>
<path style=" stroke:none;fill-rule:nonzero;fill:rgb(98.039216%,84.705883%,52.156866%);fill-opacity:1;" d="M 9.125 54.75 C 9.207031 54.75 9.289062 54.75 9.375 54.75 C 9.40625 55.441406 9.40625 55.441406 9.25 55.734375 C 9.097656 56.054688 9.089844 56.300781 9.078125 56.65625 C 9.011719 57.507812 8.792969 58.082031 8.1875 58.6875 C 7.535156 58.96875 6.949219 58.996094 6.25 58.875 C 5.917969 58.710938 5.644531 58.53125 5.355469 58.300781 C 5.117188 58.101562 5.117188 58.101562 4.75 58 C 4.671875 57.359375 4.839844 57 5.1875 56.488281 C 5.570312 56.003906 6.042969 55.589844 6.625 55.375 C 7.050781 55.371094 7.46875 55.386719 7.894531 55.417969 C 8.191406 55.433594 8.191406 55.433594 8.625 55.375 C 8.925781 55.078125 8.925781 55.078125 9.125 54.75 Z M 9.125 54.75 "/>
<path style=" stroke:none;fill-rule:nonzero;fill:rgb(85.882354%,78.823531%,70.980394%);fill-opacity:1;" d="M 31.25 44 C 31.292969 44 31.332031 44 31.375 44 C 31.375 45.9375 31.375 47.878906 31.375 49.875 C 31.066406 49.9375 31.066406 49.9375 30.75 50 C 30.667969 49.304688 30.59375 48.609375 30.527344 47.914062 C 30.507812 47.6875 30.480469 47.464844 30.457031 47.242188 C 30.386719 46.105469 30.863281 45.046875 31.25 44 Z M 31.25 44 "/>
</g>
</svg>
