<?xml version="1.0" encoding="UTF-8"?>
<svg xmlns="http://www.w3.org/2000/svg" xmlns:xlink="http://www.w3.org/1999/xlink" width="26px" height="26px" viewBox="0 0 26 26" version="1.1">
<g id="surface1">
<path style=" stroke:none;fill-rule:nonzero;fill:rgb(100%,100%,100%);fill-opacity:1;" d="M 13 19.5 C 16.589844 19.5 19.5 16.589844 19.5 13 C 19.5 9.410156 16.589844 6.5 13 6.5 C 9.410156 6.5 6.5 9.410156 6.5 13 C 6.5 16.589844 9.410156 19.5 13 19.5 M 13 0 C 13.449219 0 13.8125 0.363281 13.8125 0.8125 L 13.8125 4.0625 C 13.8125 4.511719 13.449219 4.875 13 4.875 C 12.550781 4.875 12.1875 4.511719 12.1875 4.0625 L 12.1875 0.8125 C 12.1875 0.363281 12.550781 0 13 0 M 13 21.125 C 13.449219 21.125 13.8125 21.488281 13.8125 21.9375 L 13.8125 25.1875 C 13.8125 25.636719 13.449219 26 13 26 C 12.550781 26 12.1875 25.636719 12.1875 25.1875 L 12.1875 21.9375 C 12.1875 21.488281 12.550781 21.125 13 21.125 M 26 13 C 26 13.449219 25.636719 13.8125 25.1875 13.8125 L 21.9375 13.8125 C 21.488281 13.8125 21.125 13.449219 21.125 13 C 21.125 12.550781 21.488281 12.1875 21.9375 12.1875 L 25.1875 12.1875 C 25.636719 12.1875 26 12.550781 26 13 M 4.875 13 C 4.875 13.449219 4.511719 13.8125 4.0625 13.8125 L 0.8125 13.8125 C 0.363281 13.8125 0 13.449219 0 13 C 0 12.550781 0.363281 12.1875 0.8125 12.1875 L 4.0625 12.1875 C 4.511719 12.1875 4.875 12.550781 4.875 13 M 22.191406 3.808594 C 22.507812 4.125 22.507812 4.640625 22.191406 4.957031 L 19.894531 7.257812 C 19.574219 7.570312 19.0625 7.570312 18.742188 7.257812 C 18.429688 6.9375 18.429688 6.425781 18.742188 6.105469 L 21.042969 3.808594 C 21.359375 3.492188 21.875 3.492188 22.191406 3.808594 M 7.257812 18.742188 C 7.570312 19.0625 7.570312 19.574219 7.257812 19.894531 L 4.957031 22.191406 C 4.636719 22.5 4.128906 22.496094 3.816406 22.183594 C 3.503906 21.871094 3.5 21.363281 3.808594 21.042969 L 6.105469 18.742188 C 6.425781 18.429688 6.9375 18.429688 7.257812 18.742188 M 22.191406 22.191406 C 21.875 22.507812 21.359375 22.507812 21.042969 22.191406 L 18.742188 19.894531 C 18.4375 19.574219 18.441406 19.066406 18.757812 18.757812 C 19.066406 18.441406 19.574219 18.4375 19.894531 18.742188 L 22.191406 21.042969 C 22.507812 21.359375 22.507812 21.875 22.191406 22.191406 M 7.257812 7.257812 C 6.9375 7.570312 6.425781 7.570312 6.105469 7.257812 L 3.808594 4.957031 C 3.597656 4.753906 3.507812 4.449219 3.585938 4.167969 C 3.660156 3.878906 3.878906 3.660156 4.167969 3.585938 C 4.449219 3.507812 4.753906 3.597656 4.957031 3.808594 L 7.257812 6.105469 C 7.410156 6.257812 7.496094 6.464844 7.496094 6.683594 C 7.496094 6.898438 7.410156 7.105469 7.257812 7.257812 "/>
</g>
</svg>
