<?xml version="1.0" encoding="UTF-8"?>
<svg xmlns="http://www.w3.org/2000/svg" xmlns:xlink="http://www.w3.org/1999/xlink" width="26px" height="26px" viewBox="0 0 26 26" version="1.1">
<g id="surface1">
<path style=" stroke:none;fill-rule:nonzero;fill:rgb(100%,100%,100%);fill-opacity:1;" d="M 13 0 C 5.820312 0 0 5.820312 0 13 C 0 18.75 3.71875 23.609375 8.890625 25.335938 C 9.539062 25.445312 9.78125 25.054688 9.78125 24.71875 C 9.78125 24.40625 9.765625 23.386719 9.765625 22.296875 C 6.5 22.898438 5.65625 21.5 5.394531 20.765625 C 5.25 20.394531 4.617188 19.242188 4.0625 18.933594 C 3.609375 18.6875 2.957031 18.085938 4.046875 18.070312 C 5.070312 18.050781 5.800781 19.011719 6.046875 19.402344 C 7.214844 21.371094 9.085938 20.816406 9.832031 20.472656 C 9.945312 19.632812 10.289062 19.0625 10.660156 18.734375 C 7.765625 18.414062 4.742188 17.292969 4.742188 12.320312 C 4.742188 10.90625 5.25 9.734375 6.078125 8.824219 C 5.945312 8.5 5.492188 7.164062 6.207031 5.378906 C 6.207031 5.378906 7.296875 5.035156 9.78125 6.710938 C 10.820312 6.417969 11.929688 6.269531 13.03125 6.269531 C 14.136719 6.269531 15.242188 6.417969 16.28125 6.710938 C 18.769531 5.023438 19.859375 5.378906 19.859375 5.378906 C 20.570312 7.164062 20.117188 8.5 19.988281 8.824219 C 20.816406 9.734375 21.320312 10.886719 21.320312 12.320312 C 21.320312 17.308594 18.28125 18.414062 15.390625 18.734375 C 15.859375 19.140625 16.265625 19.921875 16.265625 21.140625 C 16.265625 22.882812 16.25 24.277344 16.25 24.71875 C 16.25 25.054688 16.496094 25.460938 17.144531 25.335938 C 22.4375 23.550781 26 18.585938 26 13 C 26 5.820312 20.179688 0 13 0 "/>
</g>
</svg>
