<?xml version="1.0" encoding="UTF-8"?>
<svg xmlns="http://www.w3.org/2000/svg" xmlns:xlink="http://www.w3.org/1999/xlink" width="32px" height="32px" viewBox="0 0 32 32" version="1.1">
<g id="surface1">
<path style=" stroke:none;fill-rule:nonzero;fill:rgb(96.078432%,77.254903%,9.411765%);fill-opacity:1;" d="M 4.800781 0 L 27.199219 0 C 29.851562 0 32 2.148438 32 4.800781 L 32 27.199219 C 32 29.851562 29.851562 32 27.199219 32 L 4.800781 32 C 2.148438 32 0 29.851562 0 27.199219 L 0 4.800781 C 0 2.148438 2.148438 0 4.800781 0 Z M 4.800781 0 "/>
<path style=" stroke:none;fill-rule:nonzero;fill:rgb(0%,0%,0%);fill-opacity:1;" d="M 6.5 20.5 L 6.5 11.5 L 4 11.5 L 4 20.5 Z M 11.8125 11.5 L 11.25 15.6875 L 10.9375 13.4375 L 10.625 11.5 L 7.5 11.5 L 7.5 20.5 L 9.625 20.5 L 9.625 14.5625 L 10.5 20.5 L 12.0625 20.5 L 12.875 14.4375 L 12.875 20.5 L 15 20.5 L 15 11.5 Z M 16 20.5 L 16 11.5 L 19.875 11.5 C 20.8125 11.5 21.5 12.1875 21.5 13.0625 L 21.5 18.9375 C 21.5 19.8125 20.8125 20.5 19.875 20.5 Z M 18.9375 13.125 L 18.375 13.0625 L 18.375 18.9375 C 18.6875 18.9375 18.9375 18.875 19 18.75 C 19.125 18.625 19.125 18.25 19.125 17.625 L 19.125 13.375 Z M 26.1875 13.75 L 26.375 13.75 C 27.25 13.75 28 14.4375 28 15.3125 L 28 18.9375 C 28 19.8125 27.25 20.5 26.375 20.5 L 26.1875 20.5 C 25.6875 20.5 25.1875 20.25 24.875 19.8125 L 24.75 20.375 L 22.5 20.375 L 22.5 11.5 L 24.875 11.5 L 24.875 14.375 C 25.1875 14 25.6875 13.75 26.1875 13.75 Z M 25.6875 18.125 L 25.6875 16 L 25.625 15.3125 C 25.5625 15.1875 25.375 15.125 25.25 15.125 C 25.125 15.125 24.9375 15.1875 24.875 15.3125 L 24.875 18.875 C 24.9375 19 25.125 19.0625 25.25 19.0625 C 25.375 19.0625 25.625 19 25.625 18.875 Z M 25.6875 18.125 "/>
</g>
</svg>
