<?xml version="1.0" encoding="UTF-8"?>
<svg xmlns="http://www.w3.org/2000/svg" xmlns:xlink="http://www.w3.org/1999/xlink" width="26px" height="26px" viewBox="0 0 26 26" version="1.1">
<g id="surface1">
<path style=" stroke:none;fill-rule:nonzero;fill:rgb(96.078432%,77.254903%,9.411765%);fill-opacity:1;" d="M 3.902344 0 L 22.097656 0 C 24.253906 0 26 1.746094 26 3.902344 L 26 22.097656 C 26 24.253906 24.253906 26 22.097656 26 L 3.902344 26 C 1.746094 26 0 24.253906 0 22.097656 L 0 3.902344 C 0 1.746094 1.746094 0 3.902344 0 Z M 3.902344 0 "/>
<path style=" stroke:none;fill-rule:nonzero;fill:rgb(0%,0%,0%);fill-opacity:1;" d="M 5.28125 16.65625 L 5.28125 9.34375 L 3.25 9.34375 L 3.25 16.65625 Z M 9.597656 9.34375 L 9.140625 12.746094 L 8.886719 10.917969 L 8.632812 9.34375 L 6.09375 9.34375 L 6.09375 16.65625 L 7.820312 16.65625 L 7.820312 11.832031 L 8.53125 16.65625 L 9.800781 16.65625 L 10.460938 11.730469 L 10.460938 16.65625 L 12.1875 16.65625 L 12.1875 9.34375 Z M 13 16.65625 L 13 9.34375 L 16.148438 9.34375 C 16.910156 9.34375 17.46875 9.902344 17.46875 10.613281 L 17.46875 15.386719 C 17.46875 16.097656 16.910156 16.65625 16.148438 16.65625 Z M 15.386719 10.664062 L 14.929688 10.613281 L 14.929688 15.386719 C 15.183594 15.386719 15.386719 15.335938 15.4375 15.234375 C 15.539062 15.132812 15.539062 14.828125 15.539062 14.320312 L 15.539062 10.867188 Z M 21.277344 11.171875 L 21.429688 11.171875 C 22.140625 11.171875 22.75 11.730469 22.75 12.441406 L 22.75 15.386719 C 22.75 16.097656 22.140625 16.65625 21.429688 16.65625 L 21.277344 16.65625 C 20.871094 16.65625 20.464844 16.453125 20.210938 16.097656 L 20.109375 16.554688 L 18.28125 16.554688 L 18.28125 9.34375 L 20.210938 9.34375 L 20.210938 11.679688 C 20.464844 11.375 20.871094 11.171875 21.277344 11.171875 Z M 20.871094 14.726562 L 20.871094 13 L 20.820312 12.441406 C 20.769531 12.339844 20.617188 12.289062 20.515625 12.289062 C 20.414062 12.289062 20.261719 12.339844 20.210938 12.441406 L 20.210938 15.335938 C 20.261719 15.4375 20.414062 15.488281 20.515625 15.488281 C 20.617188 15.488281 20.820312 15.4375 20.820312 15.335938 Z M 20.871094 14.726562 "/>
</g>
</svg>
