<?xml version="1.0" encoding="UTF-8"?>
<svg xmlns="http://www.w3.org/2000/svg" xmlns:xlink="http://www.w3.org/1999/xlink" width="32px" height="32px" viewBox="0 0 32 32" version="1.1">
<g id="surface1">
<path style=" stroke:none;fill-rule:nonzero;fill:rgb(100%,100%,100%);fill-opacity:1;" d="M 12 0.554688 C 12.398438 1.042969 12.460938 1.722656 12.160156 2.273438 C 11.003906 4.394531 10.398438 6.773438 10.402344 9.191406 C 10.402344 17.234375 16.960938 23.746094 25.039062 23.746094 C 26.097656 23.746094 27.117188 23.636719 28.105469 23.425781 C 28.722656 23.292969 29.359375 23.542969 29.726562 24.058594 C 30.113281 24.597656 30.089844 25.332031 29.664062 25.84375 C 26.488281 29.746094 21.71875 32.007812 16.6875 32 C 7.46875 32 0 24.570312 0 15.421875 C 0 8.53125 4.226562 2.625 10.246094 0.121094 C 10.863281 -0.140625 11.578125 0.0351562 12 0.554688 "/>
</g>
</svg>
