<?xml version="1.0" encoding="UTF-8"?>
<svg xmlns="http://www.w3.org/2000/svg" xmlns:xlink="http://www.w3.org/1999/xlink" width="26px" height="26px" viewBox="0 0 26 26" version="1.1">
<g id="surface1">
<path style=" stroke:none;fill-rule:nonzero;fill:rgb(100%,100%,100%);fill-opacity:1;" d="M 9.75 0.453125 C 10.074219 0.847656 10.125 1.402344 9.882812 1.847656 C 8.941406 3.570312 8.449219 5.503906 8.449219 7.46875 C 8.449219 14.003906 13.78125 19.292969 20.34375 19.292969 C 21.207031 19.292969 22.035156 19.203125 22.835938 19.035156 C 23.339844 18.925781 23.855469 19.128906 24.152344 19.546875 C 24.46875 19.988281 24.445312 20.582031 24.101562 20.996094 C 21.523438 24.167969 17.644531 26.003906 13.558594 26 C 6.066406 26 0 19.960938 0 12.53125 C 0 6.933594 3.433594 2.132812 8.324219 0.0976562 C 8.828125 -0.113281 9.40625 0.03125 9.75 0.453125 "/>
</g>
</svg>
