<?xml version="1.0" encoding="UTF-8"?>
<svg xmlns="http://www.w3.org/2000/svg" xmlns:xlink="http://www.w3.org/1999/xlink" width="32px" height="32px" viewBox="0 0 32 32" version="1.1">
<g id="surface1">
<path style=" stroke:none;fill-rule:nonzero;fill:rgb(0%,0%,0%);fill-opacity:1;" d="M 12 0.554688 C 12.398438 1.042969 12.460938 1.722656 12.160156 2.273438 C 11.003906 4.394531 10.398438 6.773438 10.402344 9.191406 C 10.402344 17.234375 16.960938 23.746094 25.039062 23.746094 C 26.097656 23.746094 27.117188 23.636719 28.105469 23.425781 C 28.722656 23.292969 29.359375 23.542969 29.726562 24.058594 C 30.113281 24.597656 30.089844 25.332031 29.664062 25.84375 C 26.488281 29.746094 21.71875 32.007812 16.6875 32 C 7.46875 32 0 24.570312 0 15.421875 C 0 8.53125 4.226562 2.625 10.246094 0.121094 C 10.863281 -0.140625 11.578125 0.0351562 12 0.554688 "/>
<path style=" stroke:none;fill-rule:nonzero;fill:rgb(0%,0%,0%);fill-opacity:1;" d="M 21.589844 6.296875 L 23.1875 8.621094 C 23.53125 9.65625 24.34375 10.46875 25.378906 10.8125 L 27.703125 11.589844 L 25.378906 13.1875 C 24.34375 13.53125 23.53125 14.34375 23.1875 15.378906 L 22.410156 17.703125 L 20.8125 15.378906 C 20.46875 14.34375 19.65625 13.53125 18.621094 13.1875 L 16.296875 12.410156 L 18.621094 10.8125 C 19.65625 10.46875 20.46875 9.65625 20.8125 8.621094 Z M 27.726562 0.199219 L 28.789062 1.746094 C 29.019531 2.4375 29.5625 2.980469 30.253906 3.210938 L 31.800781 3.726562 L 30.253906 4.789062 C 29.5625 5.019531 29.019531 5.5625 28.789062 6.253906 L 28.273438 7.800781 L 27.210938 6.253906 C 26.980469 5.5625 26.4375 5.019531 25.746094 4.789062 L 24.199219 4.273438 L 25.746094 3.210938 C 26.4375 2.980469 26.980469 2.4375 27.210938 1.746094 Z M 27.726562 0.199219 "/>
</g>
</svg>
