<?xml version="1.0" encoding="UTF-8"?>
<svg xmlns="http://www.w3.org/2000/svg" xmlns:xlink="http://www.w3.org/1999/xlink" width="32px" height="32px" viewBox="0 0 32 32" version="1.1">
<g id="surface1">
<path style=" stroke:none;fill-rule:nonzero;fill:rgb(86.666667%,86.274511%,84.313726%);fill-opacity:1;" d="M 17.082031 2.0625 C 17.390625 2.382812 17.539062 2.6875 17.625 3.125 C 17.824219 3.125 18.003906 3.109375 18.203125 3.085938 C 18.683594 3.042969 19.109375 3.132812 19.5 3.4375 C 19.675781 3.617188 19.839844 3.808594 20 4 C 20.042969 4.042969 20.082031 4.082031 20.125 4.125 C 20.167969 4.085938 20.210938 4.050781 20.253906 4.011719 C 20.679688 3.695312 21.121094 3.59375 21.644531 3.636719 C 22.140625 3.722656 22.535156 3.984375 22.839844 4.378906 C 23.121094 4.792969 23.222656 5.210938 23.171875 5.710938 C 23.085938 6.164062 22.894531 6.492188 22.5625 6.8125 C 22.628906 6.8125 22.628906 6.8125 22.699219 6.8125 C 23.277344 6.835938 23.761719 6.980469 24.199219 7.375 C 24.566406 7.796875 24.71875 8.324219 24.683594 8.882812 C 24.589844 9.507812 24.316406 9.933594 23.875 10.375 C 23.921875 10.390625 23.96875 10.40625 24.015625 10.421875 C 24.53125 10.597656 24.824219 10.769531 25.117188 11.230469 C 25.3125 11.628906 25.335938 12.003906 25.332031 12.4375 C 25.332031 12.5 25.332031 12.558594 25.332031 12.621094 C 25.324219 13.179688 25.277344 13.734375 25.222656 14.292969 C 25.21875 14.335938 25.214844 14.378906 25.210938 14.421875 C 25.132812 15.1875 25.132812 15.1875 25.0625 15.4375 C 25.117188 15.4375 25.171875 15.433594 25.226562 15.433594 C 25.429688 15.429688 25.632812 15.425781 25.835938 15.421875 C 25.921875 15.421875 26.011719 15.421875 26.097656 15.417969 C 26.601562 15.40625 27.011719 15.398438 27.4375 15.6875 C 27.769531 16.085938 27.757812 16.464844 27.757812 16.960938 C 27.757812 17.046875 27.757812 17.046875 27.757812 17.136719 C 27.761719 17.332031 27.761719 17.523438 27.761719 17.714844 C 27.761719 17.851562 27.761719 17.984375 27.761719 18.121094 C 27.761719 18.402344 27.761719 18.683594 27.761719 18.964844 C 27.761719 19.324219 27.761719 19.6875 27.761719 20.046875 C 27.765625 20.324219 27.765625 20.601562 27.765625 20.878906 C 27.765625 21.011719 27.765625 21.144531 27.765625 21.277344 C 27.765625 21.464844 27.765625 21.648438 27.765625 21.835938 C 27.765625 21.890625 27.765625 21.945312 27.765625 22 C 27.765625 22.398438 27.742188 22.734375 27.476562 23.050781 C 27.246094 23.242188 27.085938 23.328125 26.78125 23.328125 C 26.726562 23.328125 26.671875 23.328125 26.613281 23.328125 C 26.527344 23.324219 26.527344 23.324219 26.4375 23.324219 C 26.375 23.324219 26.316406 23.324219 26.253906 23.324219 C 26.058594 23.324219 25.867188 23.320312 25.671875 23.320312 C 25.539062 23.320312 25.410156 23.320312 25.277344 23.320312 C 24.957031 23.316406 24.632812 23.316406 24.3125 23.3125 C 24.308594 23.355469 24.304688 23.398438 24.300781 23.441406 C 24.292969 23.558594 24.285156 23.671875 24.273438 23.785156 C 24.261719 23.925781 24.253906 24.0625 24.242188 24.203125 C 24.210938 24.578125 24.179688 24.949219 24.140625 25.324219 C 24.132812 25.429688 24.132812 25.429688 24.121094 25.542969 C 24.109375 25.679688 24.09375 25.820312 24.078125 25.957031 C 24.042969 26.328125 24.054688 26.574219 24.253906 26.894531 C 24.3125 27 24.3125 27 24.335938 27.234375 C 24.355469 27.453125 24.355469 27.453125 24.546875 27.566406 C 24.613281 27.605469 24.679688 27.644531 24.75 27.6875 C 25.078125 28.03125 25.257812 28.355469 25.28125 28.832031 C 25.269531 29.261719 25.121094 29.605469 24.835938 29.929688 C 24.464844 30.269531 24.089844 30.402344 23.589844 30.390625 C 23.4375 30.375 23.4375 30.375 23.203125 30.304688 C 23.003906 30.230469 23.003906 30.230469 22.828125 30.308594 C 22.601562 30.382812 22.414062 30.390625 22.175781 30.394531 C 22.132812 30.394531 22.089844 30.394531 22.042969 30.398438 C 21.898438 30.398438 21.757812 30.398438 21.613281 30.402344 C 21.511719 30.402344 21.410156 30.402344 21.304688 30.40625 C 21.035156 30.40625 20.765625 30.410156 20.496094 30.414062 C 20.28125 30.414062 20.070312 30.417969 19.855469 30.417969 C 18.445312 30.4375 17.035156 30.441406 15.625 30.4375 C 15.5625 30.4375 15.5 30.4375 15.4375 30.4375 C 14.550781 30.433594 13.667969 30.429688 12.78125 30.421875 C 12.390625 30.421875 11.996094 30.417969 11.605469 30.414062 C 11.21875 30.414062 10.832031 30.410156 10.445312 30.410156 C 10.300781 30.40625 10.15625 30.40625 10.007812 30.40625 C 9.808594 30.40625 9.605469 30.402344 9.402344 30.402344 C 9.34375 30.402344 9.285156 30.402344 9.222656 30.402344 C 8.773438 30.394531 8.34375 30.328125 8.011719 29.988281 C 7.976562 29.957031 7.945312 29.921875 7.910156 29.886719 C 7.65625 29.523438 7.59375 29.117188 7.550781 28.6875 C 7.546875 28.636719 7.542969 28.582031 7.535156 28.527344 C 7.515625 28.351562 7.5 28.171875 7.484375 27.996094 C 7.472656 27.875 7.460938 27.75 7.445312 27.628906 C 7.421875 27.371094 7.394531 27.113281 7.371094 26.855469 C 7.339844 26.527344 7.304688 26.199219 7.273438 25.867188 C 7.242188 25.554688 7.210938 25.238281 7.179688 24.921875 C 7.171875 24.863281 7.167969 24.804688 7.160156 24.742188 C 7.144531 24.574219 7.128906 24.402344 7.109375 24.234375 C 7.105469 24.183594 7.101562 24.132812 7.097656 24.082031 C 7.070312 23.824219 7.058594 23.570312 7.0625 23.3125 C 7.027344 23.3125 6.992188 23.3125 6.957031 23.3125 C 6.597656 23.320312 6.242188 23.324219 5.882812 23.328125 C 5.746094 23.328125 5.613281 23.328125 5.480469 23.332031 C 5.289062 23.335938 5.09375 23.335938 4.902344 23.335938 C 4.84375 23.339844 4.78125 23.339844 4.722656 23.339844 C 4.355469 23.339844 4.15625 23.300781 3.875 23.0625 C 3.679688 22.839844 3.617188 22.652344 3.617188 22.359375 C 3.617188 22.308594 3.617188 22.253906 3.613281 22.199219 C 3.613281 22.136719 3.613281 22.078125 3.613281 22.019531 C 3.613281 21.957031 3.613281 21.894531 3.613281 21.832031 C 3.613281 21.625 3.613281 21.417969 3.613281 21.210938 C 3.613281 21.070312 3.613281 20.925781 3.609375 20.78125 C 3.609375 20.480469 3.609375 20.179688 3.609375 19.882812 C 3.609375 19.496094 3.609375 19.113281 3.605469 18.726562 C 3.605469 18.429688 3.605469 18.136719 3.605469 17.839844 C 3.605469 17.699219 3.605469 17.554688 3.601562 17.414062 C 3.601562 17.214844 3.601562 17.015625 3.601562 16.816406 C 3.601562 16.757812 3.601562 16.699219 3.601562 16.640625 C 3.601562 16.273438 3.648438 15.996094 3.902344 15.710938 C 4.234375 15.449219 4.445312 15.429688 4.859375 15.429688 C 4.9375 15.429688 5.019531 15.433594 5.105469 15.433594 C 5.1875 15.433594 5.273438 15.433594 5.359375 15.433594 C 5.445312 15.433594 5.53125 15.433594 5.617188 15.433594 C 5.828125 15.433594 6.039062 15.4375 6.25 15.4375 C 6.246094 15.390625 6.238281 15.34375 6.234375 15.296875 C 6.128906 14.414062 6.042969 13.53125 6.03125 12.640625 C 6.03125 12.519531 6.027344 12.394531 6.027344 12.273438 C 6.023438 11.734375 6.105469 11.28125 6.488281 10.878906 C 6.59375 10.789062 6.699219 10.707031 6.8125 10.625 C 6.894531 10.5625 6.980469 10.5 7.0625 10.4375 C 7.023438 10.425781 6.980469 10.410156 6.941406 10.398438 C 6.429688 10.214844 6.105469 9.972656 5.851562 9.488281 C 5.628906 9.011719 5.605469 8.484375 5.785156 7.988281 C 6.035156 7.441406 6.402344 7.128906 6.9375 6.875 C 6.929688 6.835938 6.925781 6.796875 6.917969 6.757812 C 6.847656 6.207031 6.902344 5.769531 7.222656 5.304688 C 7.546875 4.890625 7.929688 4.695312 8.4375 4.5625 C 8.519531 4.5625 8.601562 4.5625 8.6875 4.5625 C 8.683594 4.511719 8.683594 4.457031 8.679688 4.40625 C 8.65625 3.726562 8.789062 3.296875 9.253906 2.796875 C 9.667969 2.425781 10.128906 2.355469 10.667969 2.363281 C 11.183594 2.394531 11.449219 2.601562 11.808594 2.964844 C 11.929688 3.078125 11.929688 3.078125 12.066406 3.050781 C 12.175781 3.003906 12.289062 2.953125 12.398438 2.902344 C 12.835938 2.734375 13.402344 2.722656 13.835938 2.90625 C 13.890625 2.9375 13.945312 2.96875 14 3 C 14.011719 2.964844 14.027344 2.929688 14.039062 2.894531 C 14.273438 2.3125 14.589844 1.9375 15.167969 1.679688 C 15.835938 1.421875 16.542969 1.597656 17.082031 2.0625 Z M 17.082031 2.0625 "/>
<path style=" stroke:none;fill-rule:nonzero;fill:rgb(98.823529%,85.490197%,52.549022%);fill-opacity:1;" d="M 17.082031 2.0625 C 17.390625 2.382812 17.539062 2.6875 17.625 3.125 C 17.824219 3.125 18.003906 3.109375 18.203125 3.085938 C 18.683594 3.042969 19.109375 3.132812 19.5 3.4375 C 19.675781 3.617188 19.839844 3.808594 20 4 C 20.042969 4.042969 20.082031 4.082031 20.125 4.125 C 20.167969 4.085938 20.210938 4.050781 20.253906 4.011719 C 20.679688 3.695312 21.121094 3.59375 21.644531 3.636719 C 22.140625 3.722656 22.535156 3.984375 22.839844 4.378906 C 23.121094 4.792969 23.222656 5.210938 23.171875 5.710938 C 23.085938 6.164062 22.894531 6.492188 22.5625 6.8125 C 22.628906 6.8125 22.628906 6.8125 22.699219 6.8125 C 23.277344 6.835938 23.761719 6.980469 24.199219 7.375 C 24.566406 7.796875 24.71875 8.324219 24.683594 8.882812 C 24.589844 9.507812 24.316406 9.933594 23.875 10.375 C 23.921875 10.390625 23.96875 10.40625 24.015625 10.421875 C 24.53125 10.597656 24.824219 10.769531 25.117188 11.230469 C 25.3125 11.628906 25.335938 12.003906 25.332031 12.4375 C 25.332031 12.5 25.332031 12.558594 25.332031 12.621094 C 25.320312 13.570312 25.25 14.566406 25.0625 15.5 C 24.011719 15.5 22.957031 15.5 21.875 15.5 C 21.875 14.875 21.878906 14.285156 21.9375 13.667969 C 21.980469 13.171875 22.015625 12.679688 22.023438 12.183594 C 22.023438 12.132812 22.027344 12.085938 22.027344 12.035156 C 22.03125 11.597656 21.886719 11.28125 21.601562 10.953125 C 21.175781 10.585938 20.863281 10.476562 20.308594 10.476562 C 20.050781 10.507812 19.855469 10.609375 19.632812 10.738281 C 19.5 10.8125 19.5 10.8125 19.3125 10.875 C 19.242188 10.988281 19.242188 10.988281 19.1875 11.125 C 19.167969 11.164062 19.144531 11.203125 19.125 11.242188 C 18.914062 11.65625 18.886719 12.050781 18.863281 12.507812 C 18.855469 12.621094 18.855469 12.621094 18.847656 12.738281 C 18.816406 13.292969 18.789062 13.84375 18.769531 14.398438 C 18.757812 14.765625 18.726562 15.132812 18.6875 15.5 C 18.625 15.5 18.558594 15.5 18.496094 15.5 C 18.257812 15.496094 18.019531 15.5 17.78125 15.503906 C 17.675781 15.503906 17.574219 15.503906 17.472656 15.503906 C 16.785156 15.476562 16.785156 15.476562 16.203125 15.78125 C 16.171875 15.820312 16.140625 15.859375 16.105469 15.898438 C 15.960938 16.039062 15.820312 16.035156 15.625 16.0625 C 15.625 16.007812 15.625 15.953125 15.625 15.898438 C 15.621094 15.382812 15.617188 14.867188 15.609375 14.351562 C 15.609375 14.089844 15.605469 13.824219 15.601562 13.558594 C 15.601562 13.304688 15.597656 13.046875 15.597656 12.792969 C 15.59375 12.695312 15.59375 12.597656 15.59375 12.5 C 15.605469 11.695312 15.605469 11.695312 15.261719 10.988281 C 14.820312 10.625 14.457031 10.457031 13.878906 10.472656 C 13.40625 10.539062 13.054688 10.769531 12.757812 11.132812 C 12.589844 11.40625 12.546875 11.640625 12.546875 11.960938 C 12.546875 12.039062 12.546875 12.117188 12.546875 12.199219 C 12.550781 12.285156 12.550781 12.367188 12.550781 12.453125 C 12.550781 12.542969 12.550781 12.628906 12.550781 12.71875 C 12.550781 12.949219 12.550781 13.179688 12.554688 13.410156 C 12.554688 13.644531 12.554688 13.878906 12.554688 14.117188 C 12.558594 14.578125 12.558594 15.039062 12.5625 15.5 C 12.128906 15.5 11.691406 15.503906 11.257812 15.503906 C 11.109375 15.503906 10.960938 15.503906 10.8125 15.503906 C 10.601562 15.503906 10.386719 15.503906 10.175781 15.507812 C 10.109375 15.507812 10.042969 15.507812 9.972656 15.507812 C 9.914062 15.507812 9.851562 15.507812 9.789062 15.507812 C 9.707031 15.507812 9.707031 15.507812 9.625 15.507812 C 9.5 15.5 9.5 15.5 9.4375 15.4375 C 9.425781 15.277344 9.414062 15.121094 9.410156 14.960938 C 9.402344 14.863281 9.398438 14.761719 9.394531 14.660156 C 9.390625 14.605469 9.390625 14.554688 9.386719 14.5 C 9.351562 13.742188 9.3125 12.980469 9.253906 12.222656 C 9.25 12.167969 9.246094 12.113281 9.242188 12.054688 C 9.199219 11.550781 9.050781 11.183594 8.6875 10.8125 C 8.3125 10.546875 8.003906 10.496094 7.554688 10.480469 C 6.960938 10.449219 6.5 10.316406 6.089844 9.871094 C 5.730469 9.394531 5.632812 8.902344 5.6875 8.3125 C 5.8125 7.804688 6.085938 7.375 6.527344 7.085938 C 6.664062 7.011719 6.796875 6.941406 6.9375 6.875 C 6.929688 6.835938 6.925781 6.796875 6.917969 6.757812 C 6.847656 6.207031 6.902344 5.769531 7.222656 5.304688 C 7.546875 4.890625 7.929688 4.695312 8.4375 4.5625 C 8.519531 4.5625 8.601562 4.5625 8.6875 4.5625 C 8.683594 4.511719 8.683594 4.457031 8.679688 4.40625 C 8.65625 3.726562 8.789062 3.296875 9.253906 2.796875 C 9.667969 2.425781 10.128906 2.355469 10.667969 2.363281 C 11.183594 2.394531 11.449219 2.601562 11.808594 2.964844 C 11.929688 3.078125 11.929688 3.078125 12.066406 3.050781 C 12.175781 3.003906 12.289062 2.953125 12.398438 2.902344 C 12.835938 2.734375 13.402344 2.722656 13.835938 2.90625 C 13.890625 2.9375 13.945312 2.96875 14 3 C 14.011719 2.964844 14.027344 2.929688 14.039062 2.894531 C 14.273438 2.3125 14.589844 1.9375 15.167969 1.679688 C 15.835938 1.421875 16.542969 1.597656 17.082031 2.0625 Z M 17.082031 2.0625 "/>
<path style=" stroke:none;fill-rule:nonzero;fill:rgb(79.607844%,79.607844%,77.254903%);fill-opacity:1;" d="M 8.382812 10.554688 C 8.75 10.777344 9.101562 11.070312 9.222656 11.492188 C 9.273438 11.730469 9.289062 11.96875 9.308594 12.210938 C 9.316406 12.300781 9.316406 12.300781 9.324219 12.394531 C 9.40625 13.40625 9.449219 14.421875 9.5 15.4375 C 11.015625 15.46875 11.015625 15.46875 12.5625 15.5 C 12.542969 15.109375 12.519531 14.714844 12.5 14.3125 C 12.488281 13.898438 12.484375 13.488281 12.480469 13.074219 C 12.480469 12.953125 12.480469 12.832031 12.476562 12.710938 C 12.476562 12.53125 12.472656 12.351562 12.472656 12.171875 C 12.472656 12.117188 12.472656 12.0625 12.46875 12.007812 C 12.472656 11.578125 12.585938 11.253906 12.867188 10.925781 C 13.304688 10.558594 13.667969 10.394531 14.246094 10.414062 C 14.746094 10.480469 15.09375 10.738281 15.414062 11.113281 C 15.609375 11.421875 15.640625 11.71875 15.640625 12.074219 C 15.640625 12.117188 15.640625 12.160156 15.640625 12.207031 C 15.640625 12.347656 15.636719 12.492188 15.636719 12.632812 C 15.636719 12.730469 15.636719 12.832031 15.636719 12.929688 C 15.636719 13.1875 15.636719 13.449219 15.632812 13.707031 C 15.632812 13.972656 15.632812 14.238281 15.632812 14.503906 C 15.628906 15.023438 15.628906 15.542969 15.625 16.0625 C 15.667969 16.082031 15.707031 16.105469 15.75 16.125 C 15.71875 18.847656 15.71875 18.847656 15.6875 21.625 C 15.730469 21.644531 15.769531 21.667969 15.8125 21.6875 C 15.75 21.6875 15.6875 21.6875 15.625 21.6875 C 15.625 23.132812 15.625 24.574219 15.625 26.0625 C 15.363281 25.800781 15.347656 25.425781 15.3125 25.074219 C 15.308594 25.027344 15.300781 24.980469 15.296875 24.929688 C 15.246094 24.421875 15.207031 23.914062 15.167969 23.40625 C 15.144531 23.101562 15.121094 22.800781 15.0625 22.5 C 15.046875 22.554688 15.027344 22.605469 15.011719 22.660156 C 14.988281 22.730469 14.964844 22.800781 14.941406 22.871094 C 14.917969 22.941406 14.894531 23.007812 14.875 23.078125 C 14.8125 23.25 14.8125 23.25 14.75 23.3125 C 14.601562 23.320312 14.453125 23.320312 14.300781 23.320312 C 14.230469 23.320312 14.230469 23.320312 14.160156 23.320312 C 14.003906 23.320312 13.847656 23.320312 13.691406 23.320312 C 13.582031 23.320312 13.476562 23.320312 13.367188 23.316406 C 13.082031 23.316406 12.800781 23.316406 12.515625 23.316406 C 12.226562 23.316406 11.933594 23.316406 11.644531 23.316406 C 11.074219 23.316406 10.507812 23.3125 9.9375 23.3125 C 9.941406 23.390625 9.949219 23.46875 9.953125 23.546875 C 10.054688 24.925781 10.144531 26.300781 10.210938 27.679688 C 10.214844 27.777344 10.21875 27.875 10.222656 27.972656 C 10.226562 28.019531 10.226562 28.066406 10.230469 28.113281 C 10.242188 28.378906 10.261719 28.644531 10.285156 28.90625 C 10.3125 29.226562 10.320312 29.539062 10.316406 29.859375 C 10.316406 29.910156 10.316406 29.960938 10.316406 30.011719 C 10.316406 30.132812 10.3125 30.253906 10.3125 30.375 C 10.0625 30.378906 9.8125 30.382812 9.5625 30.386719 C 9.457031 30.390625 9.457031 30.390625 9.347656 30.390625 C 8.875 30.394531 8.511719 30.371094 8.113281 30.089844 C 8.078125 30.058594 8.046875 30.023438 8.011719 29.988281 C 7.976562 29.957031 7.945312 29.921875 7.910156 29.886719 C 7.65625 29.523438 7.59375 29.117188 7.550781 28.6875 C 7.546875 28.636719 7.542969 28.582031 7.535156 28.527344 C 7.515625 28.351562 7.5 28.171875 7.484375 27.996094 C 7.472656 27.875 7.460938 27.75 7.445312 27.628906 C 7.421875 27.371094 7.394531 27.113281 7.371094 26.855469 C 7.339844 26.527344 7.304688 26.199219 7.273438 25.867188 C 7.242188 25.554688 7.210938 25.238281 7.179688 24.921875 C 7.171875 24.863281 7.167969 24.804688 7.160156 24.742188 C 7.144531 24.574219 7.128906 24.402344 7.109375 24.234375 C 7.105469 24.183594 7.101562 24.132812 7.097656 24.082031 C 7.070312 23.824219 7.058594 23.570312 7.0625 23.3125 C 7.027344 23.3125 6.992188 23.3125 6.957031 23.3125 C 6.597656 23.320312 6.242188 23.324219 5.882812 23.328125 C 5.746094 23.328125 5.613281 23.328125 5.480469 23.332031 C 5.289062 23.335938 5.09375 23.335938 4.902344 23.335938 C 4.84375 23.339844 4.78125 23.339844 4.722656 23.339844 C 4.355469 23.339844 4.15625 23.300781 3.875 23.0625 C 3.679688 22.839844 3.617188 22.652344 3.617188 22.359375 C 3.617188 22.308594 3.617188 22.253906 3.613281 22.199219 C 3.613281 22.136719 3.613281 22.078125 3.613281 22.019531 C 3.613281 21.957031 3.613281 21.894531 3.613281 21.832031 C 3.613281 21.625 3.613281 21.417969 3.613281 21.210938 C 3.613281 21.070312 3.613281 20.925781 3.609375 20.78125 C 3.609375 20.480469 3.609375 20.179688 3.609375 19.882812 C 3.609375 19.496094 3.609375 19.113281 3.605469 18.726562 C 3.605469 18.429688 3.605469 18.136719 3.605469 17.839844 C 3.605469 17.699219 3.605469 17.554688 3.601562 17.414062 C 3.601562 17.214844 3.601562 17.015625 3.601562 16.816406 C 3.601562 16.757812 3.601562 16.699219 3.601562 16.640625 C 3.601562 16.273438 3.648438 15.996094 3.902344 15.710938 C 4.234375 15.449219 4.445312 15.429688 4.859375 15.429688 C 4.980469 15.433594 4.980469 15.433594 5.105469 15.433594 C 5.1875 15.433594 5.273438 15.433594 5.359375 15.433594 C 5.445312 15.433594 5.53125 15.433594 5.617188 15.433594 C 5.828125 15.433594 6.039062 15.4375 6.25 15.4375 C 6.246094 15.390625 6.238281 15.34375 6.234375 15.296875 C 6.128906 14.414062 6.042969 13.53125 6.03125 12.640625 C 6.03125 12.519531 6.027344 12.394531 6.027344 12.273438 C 6.023438 11.734375 6.105469 11.289062 6.484375 10.882812 C 6.589844 10.785156 6.695312 10.703125 6.8125 10.625 C 6.867188 10.585938 6.921875 10.546875 6.976562 10.507812 C 7.417969 10.359375 7.957031 10.363281 8.382812 10.554688 Z M 8.382812 10.554688 "/>
<path style=" stroke:none;fill-rule:nonzero;fill:rgb(80.784315%,78.431374%,65.098041%);fill-opacity:1;" d="M 15.625 21.6875 C 16 21.75 16 21.75 16.105469 21.84375 C 16.226562 22.074219 16.304688 22.316406 16.386719 22.566406 C 16.402344 22.617188 16.421875 22.667969 16.4375 22.722656 C 16.5625 23.097656 16.5625 23.097656 16.5625 23.3125 C 17.097656 23.3125 17.636719 23.3125 18.1875 23.3125 C 18.199219 24.105469 18.171875 24.886719 18.109375 25.675781 C 18.074219 26.179688 18.050781 26.679688 18.035156 27.183594 C 18.003906 28.269531 17.902344 29.355469 17.8125 30.4375 C 16.210938 30.441406 14.613281 30.429688 13.011719 30.410156 C 12.707031 30.40625 12.398438 30.402344 12.09375 30.398438 C 11.5 30.390625 10.90625 30.382812 10.3125 30.375 C 10.207031 28.746094 10.101562 27.121094 10.015625 25.492188 C 10.003906 25.324219 9.992188 25.152344 9.984375 24.984375 C 9.980469 24.9375 9.976562 24.894531 9.972656 24.847656 C 9.964844 24.722656 9.957031 24.597656 9.949219 24.472656 C 9.933594 24.085938 9.9375 23.699219 9.9375 23.3125 C 11.527344 23.292969 13.113281 23.269531 14.75 23.25 C 14.851562 22.960938 14.957031 22.671875 15.0625 22.375 C 15.082031 22.375 15.105469 22.375 15.125 22.375 C 15.210938 23.082031 15.277344 23.792969 15.324219 24.503906 C 15.363281 24.988281 15.410156 25.476562 15.5625 25.9375 C 15.582031 24.535156 15.605469 23.132812 15.625 21.6875 Z M 15.625 21.6875 "/>
<path style=" stroke:none;fill-rule:nonzero;fill:rgb(92.54902%,19.607843%,14.509805%);fill-opacity:1;" d="M 18.238281 17.101562 C 18.332031 17.097656 18.332031 17.097656 18.429688 17.097656 C 18.496094 17.097656 18.566406 17.097656 18.636719 17.097656 C 18.707031 17.097656 18.78125 17.097656 18.855469 17.097656 C 19.09375 17.09375 19.332031 17.09375 19.570312 17.097656 C 19.691406 17.09375 19.816406 17.09375 19.941406 17.09375 C 20.332031 17.09375 20.71875 17.09375 21.109375 17.09375 C 21.511719 17.09375 21.910156 17.09375 22.3125 17.089844 C 22.65625 17.089844 23 17.085938 23.347656 17.089844 C 23.550781 17.089844 23.757812 17.085938 23.964844 17.085938 C 24.195312 17.085938 24.421875 17.085938 24.652344 17.085938 C 24.71875 17.085938 24.789062 17.085938 24.859375 17.085938 C 25.371094 17.089844 25.371094 17.089844 25.605469 17.269531 C 25.824219 17.523438 25.820312 17.695312 25.824219 18.027344 C 25.824219 18.09375 25.824219 18.160156 25.824219 18.230469 C 25.824219 18.339844 25.824219 18.339844 25.824219 18.449219 C 25.824219 18.527344 25.824219 18.601562 25.828125 18.679688 C 25.828125 18.835938 25.828125 18.996094 25.828125 19.15625 C 25.828125 19.398438 25.828125 19.640625 25.832031 19.882812 C 25.832031 20.035156 25.832031 20.191406 25.832031 20.34375 C 25.832031 20.417969 25.835938 20.488281 25.835938 20.566406 C 25.832031 21.230469 25.832031 21.230469 25.625 21.5 C 25.28125 21.730469 24.953125 21.714844 24.554688 21.710938 C 24.449219 21.714844 24.449219 21.714844 24.34375 21.714844 C 24.113281 21.714844 23.882812 21.714844 23.652344 21.714844 C 23.496094 21.714844 23.335938 21.714844 23.175781 21.714844 C 22.839844 21.714844 22.507812 21.714844 22.171875 21.714844 C 21.785156 21.714844 21.398438 21.714844 21.011719 21.71875 C 20.640625 21.71875 20.269531 21.71875 19.894531 21.71875 C 19.738281 21.71875 19.578125 21.71875 19.421875 21.71875 C 19.199219 21.71875 18.980469 21.71875 18.757812 21.71875 C 18.695312 21.71875 18.628906 21.71875 18.5625 21.71875 C 18.199219 21.71875 17.960938 21.695312 17.6875 21.4375 C 17.5625 21.214844 17.546875 21.023438 17.546875 20.773438 C 17.542969 20.703125 17.542969 20.636719 17.542969 20.5625 C 17.542969 20.488281 17.542969 20.417969 17.542969 20.339844 C 17.542969 20.261719 17.542969 20.1875 17.542969 20.109375 C 17.542969 19.945312 17.542969 19.785156 17.542969 19.625 C 17.542969 19.375 17.542969 19.128906 17.539062 18.882812 C 17.539062 18.722656 17.539062 18.566406 17.539062 18.410156 C 17.539062 18.300781 17.539062 18.300781 17.539062 18.1875 C 17.539062 18.117188 17.539062 18.046875 17.539062 17.976562 C 17.539062 17.917969 17.539062 17.855469 17.539062 17.792969 C 17.59375 17.386719 17.828125 17.101562 18.238281 17.101562 Z M 18.238281 17.101562 "/>
<path style=" stroke:none;fill-rule:nonzero;fill:rgb(7.450981%,54.901963%,62.7451%);fill-opacity:1;" d="M 6.226562 17.117188 C 6.320312 17.113281 6.320312 17.113281 6.414062 17.113281 C 6.515625 17.113281 6.515625 17.113281 6.621094 17.113281 C 6.730469 17.113281 6.730469 17.113281 6.839844 17.113281 C 7.082031 17.109375 7.320312 17.109375 7.558594 17.109375 C 7.683594 17.105469 7.683594 17.105469 7.808594 17.105469 C 8.148438 17.105469 8.492188 17.105469 8.835938 17.105469 C 9.328125 17.101562 9.820312 17.101562 10.3125 17.097656 C 10.65625 17.09375 11 17.09375 11.347656 17.09375 C 11.554688 17.09375 11.761719 17.09375 11.964844 17.089844 C 12.195312 17.089844 12.425781 17.089844 12.65625 17.089844 C 12.761719 17.085938 12.761719 17.085938 12.863281 17.085938 C 13.378906 17.089844 13.378906 17.089844 13.570312 17.28125 C 13.609375 17.332031 13.648438 17.382812 13.6875 17.4375 C 13.707031 17.457031 13.730469 17.480469 13.75 17.5 C 13.757812 17.617188 13.761719 17.734375 13.761719 17.851562 C 13.761719 17.925781 13.765625 18.003906 13.765625 18.082031 C 13.769531 18.425781 13.769531 18.769531 13.773438 19.117188 C 13.773438 19.34375 13.777344 19.570312 13.777344 19.796875 C 13.78125 19.972656 13.78125 20.148438 13.78125 20.324219 C 13.78125 20.449219 13.785156 20.574219 13.785156 20.699219 C 13.785156 21.328125 13.785156 21.328125 13.601562 21.519531 C 13.378906 21.664062 13.214844 21.695312 12.953125 21.695312 C 12.894531 21.699219 12.832031 21.699219 12.769531 21.699219 C 12.703125 21.699219 12.636719 21.699219 12.570312 21.699219 C 12.464844 21.699219 12.464844 21.699219 12.355469 21.699219 C 12.125 21.703125 11.890625 21.703125 11.660156 21.703125 C 11.578125 21.703125 11.5 21.707031 11.417969 21.707031 C 11.085938 21.707031 10.75 21.707031 10.417969 21.707031 C 9.941406 21.710938 9.464844 21.710938 8.984375 21.714844 C 8.609375 21.71875 8.234375 21.71875 7.855469 21.71875 C 7.695312 21.71875 7.535156 21.722656 7.375 21.722656 C 7.152344 21.722656 6.929688 21.722656 6.707031 21.722656 C 6.640625 21.726562 6.574219 21.726562 6.503906 21.726562 C 6.003906 21.722656 6.003906 21.722656 5.773438 21.535156 C 5.5625 21.308594 5.554688 21.199219 5.550781 20.898438 C 5.550781 20.824219 5.546875 20.75 5.546875 20.671875 C 5.542969 20.332031 5.542969 19.996094 5.539062 19.65625 C 5.539062 19.476562 5.539062 19.296875 5.535156 19.117188 C 5.53125 18.863281 5.53125 18.605469 5.53125 18.347656 C 5.527344 18.226562 5.527344 18.226562 5.527344 18.105469 C 5.527344 17.488281 5.527344 17.488281 5.71875 17.292969 C 5.769531 17.257812 5.820312 17.222656 5.875 17.1875 C 5.976562 17.085938 6.085938 17.117188 6.226562 17.117188 Z M 6.226562 17.117188 "/>
<path style=" stroke:none;fill-rule:nonzero;fill:rgb(93.725491%,72.941178%,35.686275%);fill-opacity:1;" d="M 17.074219 2.050781 C 17.265625 2.246094 17.402344 2.417969 17.429688 2.695312 C 17.363281 2.984375 17.273438 3.070312 17.046875 3.25 C 16.9375 3.3125 16.9375 3.3125 16.8125 3.3125 C 16.796875 3.347656 16.785156 3.378906 16.769531 3.414062 C 16.59375 3.730469 16.414062 3.960938 16.0625 4.0625 C 15.863281 4.085938 15.664062 4.089844 15.460938 4.097656 C 15.355469 4.101562 15.25 4.105469 15.140625 4.109375 C 15.09375 4.109375 15.046875 4.113281 15 4.113281 C 14.863281 4.121094 14.863281 4.121094 14.6875 4.1875 C 14.3125 4.257812 14.078125 4.179688 13.757812 3.972656 C 13.703125 3.933594 13.644531 3.894531 13.585938 3.851562 C 13.214844 3.597656 12.742188 3.648438 12.3125 3.6875 C 11.851562 3.816406 11.511719 4.101562 11.25 4.5 C 11.042969 4.914062 11.023438 5.359375 11 5.8125 C 10.941406 5.820312 10.941406 5.820312 10.886719 5.828125 C 10.34375 5.910156 9.878906 6.113281 9.535156 6.554688 C 9.351562 6.855469 9.300781 7.171875 9.25 7.515625 C 9.195312 7.917969 9.085938 8.210938 8.757812 8.464844 C 8.386719 8.773438 8.152344 9.078125 8.0625 9.5625 C 8.046875 9.882812 8.035156 10.191406 8.125 10.5 C 6.71875 10.46875 6.71875 10.46875 6.195312 9.984375 C 5.796875 9.546875 5.664062 9.078125 5.671875 8.496094 C 5.71875 7.96875 5.980469 7.53125 6.375 7.1875 C 6.554688 7.070312 6.742188 6.96875 6.9375 6.875 C 6.929688 6.835938 6.925781 6.796875 6.917969 6.757812 C 6.847656 6.207031 6.902344 5.769531 7.222656 5.304688 C 7.546875 4.890625 7.929688 4.695312 8.4375 4.5625 C 8.519531 4.5625 8.601562 4.5625 8.6875 4.5625 C 8.683594 4.511719 8.683594 4.457031 8.679688 4.40625 C 8.65625 3.726562 8.789062 3.296875 9.253906 2.796875 C 9.667969 2.425781 10.128906 2.355469 10.667969 2.363281 C 11.183594 2.394531 11.449219 2.601562 11.808594 2.964844 C 11.929688 3.078125 11.929688 3.078125 12.066406 3.050781 C 12.175781 3.003906 12.289062 2.953125 12.398438 2.902344 C 12.835938 2.734375 13.402344 2.722656 13.835938 2.90625 C 13.890625 2.9375 13.945312 2.96875 14 3 C 14.011719 2.964844 14.027344 2.929688 14.039062 2.894531 C 14.273438 2.3125 14.589844 1.9375 15.167969 1.679688 C 15.835938 1.421875 16.535156 1.601562 17.074219 2.050781 Z M 17.074219 2.050781 "/>
<path style=" stroke:none;fill-rule:nonzero;fill:rgb(93.725491%,72.549021%,35.686275%);fill-opacity:1;" d="M 21.3125 23.3125 C 22.300781 23.3125 23.292969 23.3125 24.3125 23.3125 C 24.292969 23.535156 24.277344 23.761719 24.257812 23.992188 C 24.246094 24.136719 24.234375 24.277344 24.226562 24.421875 C 24.199219 24.722656 24.171875 25.023438 24.140625 25.324219 C 24.136719 25.394531 24.128906 25.46875 24.121094 25.542969 C 24.109375 25.679688 24.09375 25.820312 24.078125 25.957031 C 24.042969 26.328125 24.054688 26.574219 24.253906 26.894531 C 24.3125 27 24.3125 27 24.335938 27.234375 C 24.355469 27.453125 24.355469 27.453125 24.546875 27.566406 C 24.613281 27.605469 24.679688 27.644531 24.75 27.6875 C 25.078125 28.03125 25.257812 28.355469 25.28125 28.832031 C 25.269531 29.261719 25.121094 29.605469 24.835938 29.929688 C 24.464844 30.269531 24.089844 30.402344 23.589844 30.390625 C 23.4375 30.375 23.4375 30.375 23.203125 30.304688 C 23.003906 30.230469 23.003906 30.230469 22.824219 30.308594 C 22.605469 30.382812 22.4375 30.390625 22.207031 30.386719 C 22.128906 30.386719 22.050781 30.386719 21.96875 30.386719 C 21.890625 30.386719 21.808594 30.382812 21.726562 30.382812 C 21.644531 30.382812 21.5625 30.382812 21.480469 30.382812 C 21.277344 30.378906 21.078125 30.378906 20.875 30.375 C 20.875 30.339844 20.878906 30.304688 20.878906 30.265625 C 20.886719 30.101562 20.890625 29.9375 20.894531 29.773438 C 20.898438 29.71875 20.898438 29.660156 20.902344 29.601562 C 20.90625 29.320312 20.910156 29.128906 20.722656 28.90625 C 20.644531 28.828125 20.644531 28.828125 20.5625 28.75 C 20.386719 28.402344 20.390625 28.003906 20.4375 27.625 C 20.542969 27.339844 20.6875 27.121094 20.90625 26.914062 C 21.148438 26.625 21.128906 26.273438 21.148438 25.914062 C 21.15625 25.800781 21.15625 25.800781 21.164062 25.6875 C 21.179688 25.449219 21.191406 25.214844 21.207031 24.976562 C 21.21875 24.816406 21.226562 24.65625 21.238281 24.492188 C 21.265625 24.101562 21.289062 23.707031 21.3125 23.3125 Z M 21.3125 23.3125 "/>
<path style=" stroke:none;fill-rule:nonzero;fill:rgb(86.666667%,85.490197%,77.64706%);fill-opacity:1;" d="M 16.5625 23.25 C 18.144531 23.234375 19.730469 23.277344 21.3125 23.3125 C 21.296875 23.753906 21.28125 24.195312 21.261719 24.636719 C 21.253906 24.796875 21.246094 24.957031 21.242188 25.117188 C 21.234375 25.359375 21.222656 25.601562 21.210938 25.84375 C 21.207031 25.917969 21.207031 25.996094 21.203125 26.074219 C 21.175781 26.597656 21.046875 26.871094 20.6875 27.25 C 20.445312 27.601562 20.460938 27.964844 20.5 28.375 C 20.574219 28.707031 20.691406 28.878906 20.9375 29.125 C 20.917969 29.539062 20.894531 29.949219 20.875 30.375 C 19.863281 30.375 18.855469 30.375 17.8125 30.375 C 17.820312 30.109375 17.832031 29.84375 17.839844 29.570312 C 17.84375 29.488281 17.84375 29.40625 17.847656 29.320312 C 17.851562 29.253906 17.851562 29.1875 17.855469 29.117188 C 17.859375 29.050781 17.859375 28.984375 17.863281 28.914062 C 17.871094 28.734375 17.886719 28.5625 17.90625 28.386719 C 17.9375 28.082031 17.953125 27.777344 17.964844 27.46875 C 17.972656 27.355469 17.976562 27.242188 17.980469 27.132812 C 17.984375 27.074219 17.984375 27.015625 17.988281 26.953125 C 18.039062 25.738281 18.105469 24.527344 18.1875 23.3125 C 17.652344 23.3125 17.113281 23.3125 16.5625 23.3125 C 16.5625 23.292969 16.5625 23.269531 16.5625 23.25 Z M 16.5625 23.25 "/>
<path style=" stroke:none;fill-rule:nonzero;fill:rgb(87.450981%,5.882353%,5.882353%);fill-opacity:1;" d="M 9.9375 23.3125 C 10.886719 23.3125 11.835938 23.3125 12.8125 23.3125 C 12.894531 24.785156 12.957031 26.253906 13.003906 27.726562 C 13.007812 27.863281 13.011719 27.996094 13.015625 28.132812 C 13.023438 28.386719 13.03125 28.644531 13.039062 28.898438 C 13.042969 28.976562 13.042969 29.054688 13.046875 29.132812 C 13.046875 29.203125 13.050781 29.277344 13.054688 29.351562 C 13.054688 29.414062 13.058594 29.476562 13.058594 29.539062 C 13.0625 29.816406 13.0625 30.097656 13.0625 30.375 C 12.15625 30.375 11.246094 30.375 10.3125 30.375 C 10.207031 28.746094 10.101562 27.121094 10.015625 25.492188 C 10.003906 25.324219 9.992188 25.152344 9.984375 24.984375 C 9.980469 24.9375 9.976562 24.894531 9.972656 24.847656 C 9.964844 24.722656 9.957031 24.597656 9.949219 24.472656 C 9.933594 24.085938 9.9375 23.699219 9.9375 23.3125 Z M 9.9375 23.3125 "/>
<path style=" stroke:none;fill-rule:nonzero;fill:rgb(80.784315%,78.431374%,65.098041%);fill-opacity:1;" d="M 7.0625 23.3125 C 8.011719 23.3125 8.960938 23.3125 9.9375 23.3125 C 10.042969 24.769531 10.144531 26.222656 10.210938 27.679688 C 10.214844 27.777344 10.21875 27.875 10.222656 27.972656 C 10.226562 28.019531 10.226562 28.066406 10.230469 28.113281 C 10.242188 28.378906 10.261719 28.644531 10.285156 28.90625 C 10.3125 29.226562 10.320312 29.539062 10.316406 29.859375 C 10.316406 29.910156 10.316406 29.960938 10.316406 30.011719 C 10.316406 30.132812 10.3125 30.253906 10.3125 30.375 C 10.0625 30.378906 9.8125 30.382812 9.5625 30.386719 C 9.492188 30.386719 9.421875 30.390625 9.347656 30.390625 C 8.875 30.394531 8.511719 30.371094 8.113281 30.089844 C 8.0625 30.039062 8.0625 30.039062 8.011719 29.988281 C 7.976562 29.957031 7.945312 29.921875 7.910156 29.886719 C 7.65625 29.523438 7.59375 29.117188 7.550781 28.6875 C 7.542969 28.609375 7.542969 28.609375 7.535156 28.527344 C 7.515625 28.351562 7.5 28.171875 7.484375 27.996094 C 7.472656 27.875 7.460938 27.75 7.445312 27.628906 C 7.421875 27.371094 7.394531 27.113281 7.371094 26.855469 C 7.339844 26.527344 7.304688 26.199219 7.273438 25.867188 C 7.242188 25.554688 7.210938 25.238281 7.179688 24.921875 C 7.171875 24.863281 7.167969 24.804688 7.160156 24.742188 C 7.144531 24.574219 7.128906 24.402344 7.109375 24.234375 C 7.105469 24.183594 7.101562 24.132812 7.097656 24.082031 C 7.089844 24.035156 7.085938 23.988281 7.082031 23.941406 C 7.078125 23.878906 7.078125 23.878906 7.070312 23.820312 C 7.058594 23.652344 7.0625 23.480469 7.0625 23.3125 Z M 7.0625 23.3125 "/>
<path style=" stroke:none;fill-rule:nonzero;fill:rgb(92.54902%,20%,14.901961%);fill-opacity:1;" d="M 15.625 21.6875 C 16 21.75 16 21.75 16.105469 21.84375 C 16.226562 22.074219 16.304688 22.316406 16.386719 22.566406 C 16.402344 22.617188 16.421875 22.667969 16.4375 22.722656 C 16.5625 23.097656 16.5625 23.097656 16.5625 23.3125 C 17.097656 23.3125 17.636719 23.3125 18.1875 23.3125 C 18.199219 24.105469 18.171875 24.886719 18.109375 25.675781 C 18.074219 26.179688 18.050781 26.679688 18.035156 27.183594 C 18.003906 28.269531 17.902344 29.351562 17.8125 30.4375 C 17.089844 30.4375 16.367188 30.4375 15.625 30.4375 C 15.625 27.550781 15.625 24.664062 15.625 21.6875 Z M 15.625 21.6875 "/>
<path style=" stroke:none;fill-rule:nonzero;fill:rgb(92.54902%,20%,14.901961%);fill-opacity:1;" d="M 24.40625 10.542969 C 24.839844 10.800781 25.15625 11.195312 25.289062 11.683594 C 25.335938 11.933594 25.332031 12.183594 25.332031 12.4375 C 25.332031 12.5 25.332031 12.558594 25.332031 12.621094 C 25.320312 13.570312 25.25 14.566406 25.0625 15.5 C 24.011719 15.5 22.957031 15.5 21.875 15.5 C 21.875 14.261719 21.875 14.261719 21.90625 13.753906 C 21.910156 13.695312 21.910156 13.636719 21.914062 13.578125 C 21.921875 13.457031 21.929688 13.335938 21.9375 13.214844 C 21.945312 13.09375 21.953125 12.972656 21.957031 12.851562 C 22.035156 11.375 22.035156 11.375 22.617188 10.816406 C 23.128906 10.414062 23.792969 10.257812 24.40625 10.542969 Z M 24.40625 10.542969 "/>
<path style=" stroke:none;fill-rule:nonzero;fill:rgb(80.784315%,78.431374%,65.098041%);fill-opacity:1;" d="M 8.382812 10.554688 C 8.75 10.773438 9.101562 11.070312 9.222656 11.492188 C 9.277344 11.746094 9.289062 12.007812 9.3125 12.269531 C 9.316406 12.332031 9.324219 12.394531 9.328125 12.460938 C 9.367188 12.910156 9.394531 13.363281 9.414062 13.8125 C 9.417969 13.894531 9.417969 13.894531 9.421875 13.980469 C 9.441406 14.464844 9.4375 14.949219 9.4375 15.4375 C 8.386719 15.4375 7.332031 15.4375 6.25 15.4375 C 6.144531 14.503906 6.042969 13.578125 6.03125 12.640625 C 6.03125 12.519531 6.027344 12.394531 6.027344 12.273438 C 6.023438 11.734375 6.105469 11.289062 6.484375 10.882812 C 6.589844 10.785156 6.695312 10.703125 6.8125 10.625 C 6.894531 10.566406 6.894531 10.566406 6.976562 10.507812 C 7.417969 10.359375 7.957031 10.363281 8.382812 10.554688 Z M 8.382812 10.554688 "/>
<path style=" stroke:none;fill-rule:nonzero;fill:rgb(93.725491%,72.941178%,36.078432%);fill-opacity:1;" d="M 4.183594 26.484375 C 4.578125 26.78125 4.765625 27.085938 4.875 27.5625 C 4.917969 27.875 4.859375 28.117188 4.734375 28.410156 C 4.671875 28.613281 4.65625 28.816406 4.636719 29.03125 C 4.585938 29.449219 4.503906 29.71875 4.1875 30 C 3.742188 30.335938 3.367188 30.417969 2.8125 30.375 C 2.585938 30.320312 2.378906 30.25 2.203125 30.085938 C 2 29.960938 1.808594 29.992188 1.578125 30.003906 C 1.183594 30.015625 0.875 30.011719 0.5625 29.75 C 0.246094 29.449219 0.0234375 29.179688 -0.0195312 28.734375 C -0.0273438 28.199219 -0.0078125 27.832031 0.367188 27.441406 C 0.652344 27.175781 0.878906 26.996094 1.285156 27.003906 C 1.40625 27.011719 1.40625 27.011719 1.527344 27.019531 C 1.84375 27.035156 1.84375 27.035156 2.125 26.910156 C 2.214844 26.796875 2.214844 26.796875 2.292969 26.675781 C 2.464844 26.441406 2.75 26.34375 3.027344 26.273438 C 3.445312 26.210938 3.824219 26.253906 4.183594 26.484375 Z M 4.183594 26.484375 "/>
<path style=" stroke:none;fill-rule:nonzero;fill:rgb(93.725491%,72.941178%,36.078432%);fill-opacity:1;" d="M 29.496094 26.386719 C 29.53125 26.414062 29.566406 26.441406 29.605469 26.472656 C 29.851562 26.652344 30.074219 26.636719 30.367188 26.625 C 30.867188 26.605469 31.222656 26.691406 31.601562 27.027344 C 31.972656 27.433594 32.035156 27.832031 32.023438 28.363281 C 31.972656 28.800781 31.769531 29.097656 31.4375 29.375 C 31.09375 29.617188 30.796875 29.691406 30.375 29.6875 C 30.308594 29.667969 30.242188 29.648438 30.175781 29.628906 C 30.089844 29.628906 30.089844 29.628906 30 29.625 C 29.882812 29.742188 29.785156 29.867188 29.679688 29.996094 C 29.40625 30.296875 29.058594 30.386719 28.660156 30.410156 C 28.1875 30.390625 27.792969 30.199219 27.472656 29.855469 C 27.203125 29.503906 27.09375 29.144531 27.105469 28.699219 C 27.132812 28.519531 27.195312 28.367188 27.265625 28.199219 C 27.320312 28.035156 27.332031 27.890625 27.339844 27.71875 C 27.371094 27.300781 27.5 27.023438 27.769531 26.703125 C 28.230469 26.316406 28.925781 26.035156 29.496094 26.386719 Z M 29.496094 26.386719 "/>
<path style=" stroke:none;fill-rule:nonzero;fill:rgb(87.450981%,6.27451%,6.27451%);fill-opacity:1;" d="M 11.585938 10.566406 C 12 10.800781 12.257812 11.125 12.4375 11.5625 C 12.507812 11.839844 12.511719 12.113281 12.519531 12.398438 C 12.519531 12.449219 12.523438 12.5 12.523438 12.550781 C 12.527344 12.660156 12.527344 12.765625 12.53125 12.875 C 12.535156 13.035156 12.539062 13.195312 12.542969 13.355469 C 12.5625 14.070312 12.566406 14.785156 12.5625 15.5 C 12.128906 15.5 11.691406 15.503906 11.257812 15.503906 C 11.109375 15.503906 10.960938 15.503906 10.8125 15.503906 C 10.601562 15.503906 10.386719 15.503906 10.175781 15.507812 C 10.109375 15.507812 10.042969 15.507812 9.972656 15.507812 C 9.914062 15.507812 9.851562 15.507812 9.789062 15.507812 C 9.734375 15.507812 9.679688 15.507812 9.625 15.507812 C 9.5 15.5 9.5 15.5 9.4375 15.4375 C 9.421875 15.28125 9.414062 15.121094 9.402344 14.964844 C 9.398438 14.890625 9.398438 14.890625 9.394531 14.816406 C 9.386719 14.65625 9.378906 14.5 9.371094 14.339844 C 9.367188 14.285156 9.367188 14.230469 9.363281 14.175781 C 9.328125 13.515625 9.296875 12.855469 9.289062 12.195312 C 9.289062 12.136719 9.285156 12.078125 9.285156 12.019531 C 9.28125 11.578125 9.390625 11.261719 9.679688 10.925781 C 10.25 10.445312 10.875 10.242188 11.585938 10.566406 Z M 11.585938 10.566406 "/>
<path style=" stroke:none;fill-rule:nonzero;fill:rgb(92.54902%,19.607843%,14.509805%);fill-opacity:1;" d="M 18.015625 10.628906 C 18.417969 10.851562 18.648438 11.136719 18.8125 11.5625 C 18.921875 12.191406 18.867188 12.839844 18.828125 13.46875 C 18.820312 13.636719 18.8125 13.804688 18.804688 13.972656 C 18.777344 14.480469 18.746094 14.992188 18.6875 15.5 C 18.59375 15.5 18.59375 15.5 18.496094 15.5 C 18.257812 15.496094 18.019531 15.5 17.78125 15.503906 C 17.675781 15.503906 17.574219 15.503906 17.472656 15.503906 C 16.785156 15.476562 16.785156 15.476562 16.199219 15.78125 C 16.148438 15.839844 16.148438 15.839844 16.101562 15.898438 C 15.96875 16.027344 15.863281 16.03125 15.6875 16.0625 C 15.679688 15.503906 15.675781 14.941406 15.671875 14.382812 C 15.667969 14.125 15.667969 13.863281 15.664062 13.605469 C 15.660156 13.351562 15.660156 13.101562 15.65625 12.851562 C 15.65625 12.753906 15.65625 12.660156 15.65625 12.5625 C 15.644531 11.949219 15.671875 11.417969 16.109375 10.945312 C 16.628906 10.453125 17.359375 10.332031 18.015625 10.628906 Z M 18.015625 10.628906 "/>
<path style=" stroke:none;fill-rule:nonzero;fill:rgb(87.843138%,6.27451%,5.882353%);fill-opacity:1;" d="M 18.648438 17.085938 C 18.757812 17.082031 18.757812 17.082031 18.867188 17.082031 C 19.105469 17.082031 19.34375 17.082031 19.582031 17.082031 C 19.746094 17.082031 19.914062 17.082031 20.078125 17.082031 C 20.425781 17.082031 20.769531 17.082031 21.117188 17.085938 C 21.519531 17.085938 21.917969 17.085938 22.320312 17.082031 C 22.703125 17.082031 23.089844 17.082031 23.476562 17.082031 C 23.640625 17.082031 23.804688 17.082031 23.96875 17.082031 C 24.195312 17.082031 24.425781 17.082031 24.65625 17.085938 C 24.722656 17.082031 24.789062 17.082031 24.859375 17.082031 C 25.371094 17.089844 25.371094 17.089844 25.605469 17.269531 C 25.824219 17.523438 25.820312 17.695312 25.824219 18.027344 C 25.824219 18.09375 25.824219 18.160156 25.824219 18.230469 C 25.824219 18.339844 25.824219 18.339844 25.824219 18.449219 C 25.824219 18.527344 25.824219 18.601562 25.828125 18.679688 C 25.828125 18.835938 25.828125 18.996094 25.828125 19.15625 C 25.828125 19.398438 25.828125 19.640625 25.832031 19.882812 C 25.832031 20.035156 25.832031 20.191406 25.832031 20.34375 C 25.832031 20.417969 25.835938 20.488281 25.835938 20.566406 C 25.832031 21.207031 25.832031 21.207031 25.625 21.5 C 25.363281 21.671875 25.183594 21.695312 24.875 21.6875 C 24.867188 21.621094 24.859375 21.558594 24.851562 21.492188 C 24.707031 20.441406 24.308594 19.554688 23.46875 18.875 C 22.671875 18.285156 21.914062 18.167969 20.945312 18.160156 C 20.847656 18.160156 20.753906 18.160156 20.65625 18.15625 C 20.40625 18.15625 20.15625 18.152344 19.902344 18.148438 C 19.648438 18.148438 19.390625 18.144531 19.132812 18.140625 C 18.628906 18.136719 18.128906 18.128906 17.625 18.125 C 17.617188 18.015625 17.609375 17.910156 17.605469 17.800781 C 17.601562 17.742188 17.597656 17.679688 17.59375 17.617188 C 17.625 17.4375 17.625 17.4375 17.738281 17.261719 C 18.035156 17.058594 18.296875 17.082031 18.648438 17.085938 Z M 18.648438 17.085938 "/>
<path style=" stroke:none;fill-rule:nonzero;fill:rgb(0%,50.588238%,55.686277%);fill-opacity:1;" d="M 6.226562 17.117188 C 6.320312 17.113281 6.320312 17.113281 6.414062 17.113281 C 6.515625 17.113281 6.515625 17.113281 6.621094 17.113281 C 6.730469 17.113281 6.730469 17.113281 6.839844 17.113281 C 7.082031 17.109375 7.320312 17.109375 7.558594 17.109375 C 7.683594 17.105469 7.683594 17.105469 7.808594 17.105469 C 8.148438 17.105469 8.492188 17.105469 8.835938 17.105469 C 9.328125 17.101562 9.820312 17.101562 10.3125 17.097656 C 10.65625 17.09375 11 17.09375 11.347656 17.09375 C 11.554688 17.09375 11.761719 17.09375 11.964844 17.089844 C 12.195312 17.089844 12.425781 17.089844 12.65625 17.089844 C 12.761719 17.085938 12.761719 17.085938 12.863281 17.085938 C 13.378906 17.089844 13.378906 17.089844 13.570312 17.28125 C 13.609375 17.332031 13.648438 17.382812 13.6875 17.4375 C 13.707031 17.457031 13.730469 17.480469 13.75 17.5 C 13.757812 17.617188 13.761719 17.734375 13.761719 17.851562 C 13.761719 17.925781 13.765625 18.003906 13.765625 18.082031 C 13.769531 18.425781 13.769531 18.769531 13.773438 19.117188 C 13.773438 19.34375 13.777344 19.570312 13.777344 19.796875 C 13.78125 19.972656 13.78125 20.148438 13.78125 20.324219 C 13.78125 20.449219 13.785156 20.574219 13.785156 20.699219 C 13.785156 21.328125 13.785156 21.328125 13.601562 21.519531 C 13.332031 21.691406 13.128906 21.695312 12.8125 21.6875 C 12.804688 21.632812 12.800781 21.578125 12.792969 21.523438 C 12.667969 20.53125 12.375 19.582031 11.5625 18.9375 C 10.738281 18.351562 9.996094 18.148438 8.988281 18.152344 C 8.890625 18.152344 8.796875 18.148438 8.703125 18.148438 C 8.453125 18.148438 8.203125 18.144531 7.957031 18.144531 C 7.558594 18.144531 7.15625 18.140625 6.757812 18.136719 C 6.617188 18.136719 6.480469 18.136719 6.339844 18.136719 C 6.253906 18.132812 6.171875 18.132812 6.085938 18.132812 C 6.011719 18.132812 5.9375 18.132812 5.859375 18.132812 C 5.6875 18.125 5.6875 18.125 5.5625 18.0625 C 5.511719 17.5625 5.511719 17.5625 5.714844 17.3125 C 5.769531 17.269531 5.820312 17.230469 5.875 17.1875 C 5.976562 17.085938 6.085938 17.117188 6.226562 17.117188 Z M 6.226562 17.117188 "/>
<path style=" stroke:none;fill-rule:nonzero;fill:rgb(80.784315%,78.431374%,65.098041%);fill-opacity:1;" d="M 18 26.375 C 18.019531 26.375 18.042969 26.375 18.0625 26.375 C 18.0625 26.476562 18.0625 26.582031 18.0625 26.6875 C 19.050781 26.6875 20.042969 26.6875 21.0625 26.6875 C 20.9375 26.9375 20.9375 26.9375 20.816406 27.085938 C 20.488281 27.503906 20.449219 27.855469 20.5 28.375 C 20.574219 28.707031 20.691406 28.878906 20.9375 29.125 C 20.917969 29.539062 20.894531 29.949219 20.875 30.375 C 19.863281 30.375 18.855469 30.375 17.8125 30.375 C 17.820312 30.109375 17.832031 29.84375 17.839844 29.570312 C 17.84375 29.488281 17.84375 29.40625 17.847656 29.320312 C 17.859375 28.953125 17.882812 28.589844 17.921875 28.226562 C 17.953125 27.878906 17.960938 27.527344 17.972656 27.179688 C 17.976562 27.101562 17.976562 27.023438 17.980469 26.945312 C 17.988281 26.753906 17.992188 26.566406 18 26.375 Z M 18 26.375 "/>
<path style=" stroke:none;fill-rule:nonzero;fill:rgb(92.54902%,20%,14.901961%);fill-opacity:1;" d="M 21.3125 23.3125 C 22.300781 23.3125 23.292969 23.3125 24.3125 23.3125 C 24.277344 23.761719 24.242188 24.210938 24.203125 24.660156 C 24.1875 24.863281 24.171875 25.0625 24.15625 25.265625 C 24.148438 25.382812 24.136719 25.5 24.128906 25.617188 C 24.125 25.671875 24.121094 25.726562 24.117188 25.785156 C 24.113281 25.835938 24.109375 25.886719 24.105469 25.9375 C 24.101562 25.980469 24.097656 26.023438 24.09375 26.070312 C 24.054688 26.214844 23.988281 26.277344 23.875 26.375 C 23.84375 26.351562 23.808594 26.332031 23.773438 26.308594 C 23.730469 26.28125 23.6875 26.253906 23.640625 26.222656 C 23.597656 26.195312 23.554688 26.167969 23.507812 26.136719 C 23.195312 25.964844 22.847656 25.957031 22.5 26 C 22.1875 26.109375 21.941406 26.246094 21.707031 26.480469 C 21.527344 26.660156 21.367188 26.6875 21.125 26.75 C 21.109375 25.996094 21.160156 25.253906 21.21875 24.503906 C 21.25 24.109375 21.28125 23.71875 21.3125 23.3125 Z M 21.3125 23.3125 "/>
<path style=" stroke:none;fill-rule:nonzero;fill:rgb(87.843138%,5.490196%,5.490196%);fill-opacity:1;" d="M 15.6875 26.1875 C 15.964844 26.375 15.964844 26.375 16.25 26.5625 C 16.417969 26.644531 16.554688 26.636719 16.742188 26.644531 C 16.816406 26.648438 16.886719 26.648438 16.964844 26.652344 C 17.039062 26.65625 17.117188 26.65625 17.195312 26.660156 C 17.273438 26.664062 17.347656 26.664062 17.429688 26.667969 C 17.617188 26.675781 17.808594 26.679688 18 26.6875 C 18.039062 27.925781 17.921875 29.144531 17.8125 30.375 C 17.109375 30.375 16.410156 30.375 15.6875 30.375 C 15.6875 28.992188 15.6875 27.609375 15.6875 26.1875 Z M 15.6875 26.1875 "/>
<path style=" stroke:none;fill-rule:nonzero;fill:rgb(80.784315%,78.431374%,65.098041%);fill-opacity:1;" d="M 13.9375 10.4375 C 14.0625 11.480469 14.164062 12.523438 14.25 13.570312 C 14.253906 13.617188 14.257812 13.660156 14.261719 13.707031 C 14.269531 13.792969 14.277344 13.878906 14.28125 13.96875 C 14.300781 14.1875 14.320312 14.40625 14.347656 14.621094 C 14.375 14.894531 14.375 15.164062 14.375 15.4375 C 13.777344 15.457031 13.179688 15.480469 12.5625 15.5 C 12.515625 14.691406 12.484375 13.886719 12.480469 13.074219 C 12.480469 12.953125 12.480469 12.832031 12.476562 12.710938 C 12.476562 12.53125 12.472656 12.351562 12.472656 12.171875 C 12.472656 12.089844 12.472656 12.089844 12.46875 12.007812 C 12.472656 11.578125 12.585938 11.253906 12.867188 10.925781 C 13.207031 10.644531 13.480469 10.4375 13.9375 10.4375 Z M 13.9375 10.4375 "/>
<path style=" stroke:none;fill-rule:nonzero;fill:rgb(98.823529%,85.490197%,52.549022%);fill-opacity:1;" d="M 31.5 26.9375 C 31.808594 27.207031 31.976562 27.539062 32.019531 27.941406 C 32.039062 28.484375 31.953125 28.820312 31.605469 29.234375 C 31.210938 29.566406 30.890625 29.6875 30.375 29.6875 C 30.308594 29.671875 30.238281 29.652344 30.167969 29.636719 C 30 29.605469 30 29.605469 29.90625 29.703125 C 29.808594 29.820312 29.808594 29.820312 29.6875 30 C 29.394531 29.882812 29.316406 29.703125 29.1875 29.429688 C 29.066406 29.078125 29.066406 28.730469 29.1875 28.382812 C 29.253906 28.171875 29.277344 27.980469 29.296875 27.761719 C 29.351562 27.351562 29.449219 27.042969 29.75 26.75 C 30.328125 26.464844 30.984375 26.582031 31.5 26.9375 Z M 31.5 26.9375 "/>
<path style=" stroke:none;fill-rule:nonzero;fill:rgb(86.274511%,85.490197%,77.64706%);fill-opacity:1;" d="M 13.9375 10.4375 C 14.382812 10.394531 14.691406 10.5 15.0625 10.75 C 15.410156 11.0625 15.605469 11.363281 15.640625 11.839844 C 15.640625 11.957031 15.640625 11.957031 15.640625 12.074219 C 15.640625 12.117188 15.640625 12.160156 15.640625 12.207031 C 15.640625 12.347656 15.636719 12.492188 15.636719 12.632812 C 15.636719 12.730469 15.636719 12.832031 15.636719 12.929688 C 15.636719 13.1875 15.636719 13.449219 15.632812 13.707031 C 15.632812 13.972656 15.632812 14.238281 15.632812 14.503906 C 15.628906 15.023438 15.628906 15.542969 15.625 16.0625 C 15.300781 16.007812 15.175781 15.890625 14.949219 15.664062 C 14.78125 15.539062 14.640625 15.527344 14.4375 15.5 C 14.277344 14.597656 14.183594 13.691406 14.101562 12.777344 C 14.082031 12.542969 14.0625 12.3125 14.039062 12.078125 C 14.027344 11.925781 14.011719 11.777344 14 11.628906 C 13.992188 11.558594 13.988281 11.488281 13.980469 11.417969 C 13.953125 11.089844 13.929688 10.765625 13.9375 10.4375 Z M 13.9375 10.4375 "/>
<path style=" stroke:none;fill-rule:nonzero;fill:rgb(98.823529%,85.490197%,52.549022%);fill-opacity:1;" d="M 24.3125 27.1875 C 24.316406 27.222656 24.316406 27.257812 24.320312 27.296875 C 24.402344 27.507812 24.5625 27.566406 24.75 27.6875 C 25.078125 28.03125 25.257812 28.355469 25.28125 28.832031 C 25.269531 29.261719 25.121094 29.605469 24.835938 29.929688 C 24.46875 30.265625 24.085938 30.410156 23.589844 30.390625 C 23.136719 30.339844 22.800781 30.074219 22.5 29.75 C 22.40625 29.566406 22.40625 29.566406 22.375 29.4375 C 22.332031 29.4375 22.292969 29.4375 22.25 29.4375 C 22.222656 29.003906 22.261719 28.679688 22.5 28.3125 C 22.753906 28.027344 23.035156 27.847656 23.378906 27.691406 C 23.558594 27.59375 23.699219 27.464844 23.847656 27.328125 C 24.015625 27.183594 24.074219 27.1875 24.3125 27.1875 Z M 24.3125 27.1875 "/>
<path style=" stroke:none;fill-rule:nonzero;fill:rgb(98.823529%,85.490197%,52.549022%);fill-opacity:1;" d="M 4.8125 27.375 C 4.941406 27.757812 4.890625 28.046875 4.734375 28.410156 C 4.671875 28.613281 4.65625 28.816406 4.636719 29.03125 C 4.585938 29.449219 4.503906 29.71875 4.1875 30 C 3.742188 30.335938 3.367188 30.417969 2.8125 30.375 C 2.632812 30.332031 2.476562 30.269531 2.3125 30.1875 C 2.242188 30.160156 2.167969 30.132812 2.09375 30.105469 C 1.898438 29.894531 1.90625 29.800781 1.894531 29.519531 C 1.914062 29.058594 2.023438 28.738281 2.339844 28.402344 C 2.605469 28.167969 2.871094 28.003906 3.230469 27.996094 C 3.3125 28 3.390625 28.007812 3.472656 28.011719 C 3.777344 28.03125 3.777344 28.03125 4.050781 27.925781 C 4.125 27.828125 4.1875 27.726562 4.25 27.625 C 4.417969 27.5 4.597656 27.375 4.8125 27.375 Z M 4.8125 27.375 "/>
<path style=" stroke:none;fill-rule:nonzero;fill:rgb(93.725491%,72.941178%,35.686275%);fill-opacity:1;" d="M 18.125 6.308594 C 18.199219 6.320312 18.199219 6.320312 18.273438 6.328125 C 18.320312 6.332031 18.371094 6.339844 18.417969 6.34375 C 18.5625 6.375 18.5625 6.375 18.679688 6.4375 C 18.824219 6.503906 18.917969 6.515625 19.078125 6.519531 C 19.125 6.519531 19.175781 6.523438 19.226562 6.523438 C 19.328125 6.527344 19.429688 6.527344 19.535156 6.53125 C 19.582031 6.53125 19.632812 6.535156 19.683594 6.535156 C 19.726562 6.535156 19.769531 6.535156 19.816406 6.539062 C 19.972656 6.570312 20.027344 6.628906 20.125 6.75 C 20.195312 7.136719 20.128906 7.476562 19.9375 7.8125 C 19.738281 7.945312 19.703125 7.949219 19.476562 7.9375 C 18.703125 7.878906 18.703125 7.878906 18.035156 8.210938 C 17.957031 8.292969 17.878906 8.375 17.800781 8.457031 C 17.636719 8.609375 17.535156 8.628906 17.3125 8.625 C 17.089844 8.476562 16.886719 8.328125 16.8125 8.0625 C 16.804688 7.882812 16.804688 7.882812 16.875 7.6875 C 16.992188 7.582031 17.121094 7.496094 17.25 7.40625 C 17.535156 7.191406 17.667969 6.859375 17.816406 6.546875 C 17.898438 6.394531 17.949219 6.3125 18.125 6.308594 Z M 18.125 6.308594 "/>
<path style=" stroke:none;fill-rule:nonzero;fill:rgb(93.725491%,72.941178%,35.686275%);fill-opacity:1;" d="M 12.625 5.5 C 12.84375 5.65625 12.925781 5.753906 12.984375 6.015625 C 12.933594 6.261719 12.890625 6.324219 12.730469 6.507812 C 12.480469 6.800781 12.421875 7.066406 12.363281 7.441406 C 12.304688 7.65625 12.234375 7.742188 12.0625 7.875 C 11.867188 7.894531 11.738281 7.902344 11.5625 7.8125 C 11.421875 7.804688 11.28125 7.796875 11.144531 7.792969 C 10.917969 7.726562 10.863281 7.640625 10.75 7.4375 C 10.722656 7.214844 10.738281 6.996094 10.753906 6.773438 C 10.757812 6.714844 10.757812 6.652344 10.761719 6.59375 C 10.785156 6.15625 10.785156 6.15625 10.894531 6.015625 C 11.0625 5.890625 11.257812 5.859375 11.460938 5.8125 C 11.863281 5.71875 12.21875 5.433594 12.625 5.5 Z M 12.625 5.5 "/>
<path style=" stroke:none;fill-rule:nonzero;fill:rgb(87.843138%,7.843138%,7.450981%);fill-opacity:1;" d="M 20.9375 29.1875 C 21.007812 29.226562 21.078125 29.265625 21.148438 29.308594 C 21.488281 29.480469 21.84375 29.523438 22.222656 29.484375 C 22.375 29.5 22.375 29.5 22.511719 29.621094 C 22.550781 29.671875 22.59375 29.722656 22.636719 29.777344 C 22.792969 29.980469 22.792969 29.980469 23 30.125 C 23 30.167969 23 30.207031 23 30.25 C 22.726562 30.355469 22.5 30.390625 22.207031 30.386719 C 22.128906 30.386719 22.050781 30.386719 21.96875 30.386719 C 21.890625 30.386719 21.808594 30.382812 21.726562 30.382812 C 21.644531 30.382812 21.5625 30.382812 21.480469 30.382812 C 21.277344 30.378906 21.078125 30.378906 20.875 30.375 C 20.875 30.222656 20.871094 30.074219 20.871094 29.921875 C 20.871094 29.878906 20.871094 29.835938 20.871094 29.792969 C 20.867188 29.582031 20.871094 29.390625 20.9375 29.1875 Z M 20.9375 29.1875 "/>
<path style=" stroke:none;fill-rule:nonzero;fill:rgb(86.274511%,85.490197%,77.64706%);fill-opacity:1;" d="M 15.625 21.6875 C 15.625 23.132812 15.625 24.574219 15.625 26.0625 C 15.363281 25.800781 15.347656 25.425781 15.3125 25.074219 C 15.308594 25.027344 15.300781 24.980469 15.296875 24.929688 C 15.253906 24.496094 15.214844 24.066406 15.179688 23.632812 C 15.175781 23.570312 15.167969 23.503906 15.164062 23.441406 C 15.058594 22.113281 15.058594 22.113281 15.3125 21.75 C 15.4375 21.6875 15.4375 21.6875 15.625 21.6875 Z M 15.625 21.6875 "/>
</g>
</svg>
