<?xml version="1.0" encoding="UTF-8"?>
<svg xmlns="http://www.w3.org/2000/svg" xmlns:xlink="http://www.w3.org/1999/xlink" width="32px" height="32px" viewBox="0 0 32 32" version="1.1">
<g id="surface1">
<path style=" stroke:none;fill-rule:nonzero;fill:rgb(100%,100%,100%);fill-opacity:1;" d="M 16 24 C 20.417969 24 24 20.417969 24 16 C 24 11.582031 20.417969 8 16 8 C 11.582031 8 8 11.582031 8 16 C 8 20.417969 11.582031 24 16 24 M 16 0 C 16.550781 0 17 0.449219 17 1 L 17 5 C 17 5.550781 16.550781 6 16 6 C 15.449219 6 15 5.550781 15 5 L 15 1 C 15 0.449219 15.449219 0 16 0 M 16 26 C 16.550781 26 17 26.449219 17 27 L 17 31 C 17 31.550781 16.550781 32 16 32 C 15.449219 32 15 31.550781 15 31 L 15 27 C 15 26.449219 15.449219 26 16 26 M 32 16 C 32 16.550781 31.550781 17 31 17 L 27 17 C 26.449219 17 26 16.550781 26 16 C 26 15.449219 26.449219 15 27 15 L 31 15 C 31.550781 15 32 15.449219 32 16 M 6 16 C 6 16.550781 5.550781 17 5 17 L 1 17 C 0.449219 17 0 16.550781 0 16 C 0 15.449219 0.449219 15 1 15 L 5 15 C 5.550781 15 6 15.449219 6 16 M 27.3125 4.6875 C 27.703125 5.078125 27.703125 5.710938 27.3125 6.101562 L 24.484375 8.929688 C 24.09375 9.320312 23.460938 9.320312 23.070312 8.929688 C 22.679688 8.539062 22.679688 7.90625 23.070312 7.515625 L 25.898438 4.6875 C 26.289062 4.296875 26.921875 4.296875 27.3125 4.6875 M 8.929688 23.070312 C 9.320312 23.460938 9.320312 24.09375 8.929688 24.484375 L 6.101562 27.3125 C 5.707031 27.691406 5.082031 27.6875 4.699219 27.300781 C 4.3125 26.917969 4.308594 26.292969 4.6875 25.898438 L 7.515625 23.070312 C 7.90625 22.679688 8.539062 22.679688 8.929688 23.070312 M 27.3125 27.3125 C 26.921875 27.703125 26.289062 27.703125 25.898438 27.3125 L 23.070312 24.484375 C 22.691406 24.09375 22.699219 23.46875 23.085938 23.085938 C 23.46875 22.699219 24.09375 22.691406 24.484375 23.070312 L 27.3125 25.898438 C 27.703125 26.289062 27.703125 26.921875 27.3125 27.3125 M 8.929688 8.929688 C 8.539062 9.320312 7.90625 9.320312 7.515625 8.929688 L 4.6875 6.101562 C 4.425781 5.847656 4.320312 5.476562 4.414062 5.128906 C 4.503906 4.777344 4.777344 4.503906 5.128906 4.414062 C 5.476562 4.320312 5.847656 4.425781 6.101562 4.6875 L 8.929688 7.515625 C 9.117188 7.703125 9.222656 7.957031 9.222656 8.222656 C 9.222656 8.488281 9.117188 8.742188 8.929688 8.929688 "/>
</g>
</svg>
